<?xml version="1.0" encoding="UTF-8"?>
<svg width="73px" height="95px" viewBox="0 0 73 95" version="1.1" xmlns="http://www.w3.org/2000/svg" xmlns:xlink="http://www.w3.org/1999/xlink">
    <!-- Generator: Sketch 47.1 (45422) - http://www.bohemiancoding.com/sketch -->
    <title>Group 13</title>
    <desc>Created with Sketch.</desc>
    <defs></defs>
    <g id="Guide-2017" stroke="none" stroke-width="1" fill="none" fill-rule="evenodd" stroke-linejoin="round">
        <g id="Patterns" transform="translate(-1007.000000, -271.000000)">
            <g id="Group-13" transform="translate(1009.000000, 273.000000)">
                <path d="M1.20454545,16 L51.7954545,16" id="Shape" stroke="#002B60" stroke-width="3" stroke-linecap="round"></path>
                <path d="M51.7954545,67 L1.20454545,67" id="Shape" stroke="#002B60" stroke-width="3" stroke-linecap="round"></path>
                <path d="M45.7727273,91 L7.22727273,91 C3.23575937,91 0,87.7835157 0,83.8157895 L0,7.18421053 C0,3.21647977 3.23575937,0 7.22727273,0 L45.7727273,0 C49.7642361,0 53,3.21647977 53,7.18421053 L53,83.8157895 C53,87.7835157 49.7642361,91 45.7727273,91 Z" id="Shape" stroke="#002B60" stroke-width="3" stroke-linecap="round"></path>
                <g id="Group-7" transform="translate(37.000000, 26.000000)" stroke-width="4">
                    <ellipse id="Oval" stroke="#89BC47" fill="#89BC47" cx="15.8086808" cy="16" rx="15.8086808" ry="16"></ellipse>
                    <g id="Group-4" transform="translate(9.086420, 10.800000)" stroke-linecap="round" stroke="#FFFFFF">
                        <polyline id="Shape" points="0.326620503 7.45454545 4.6380789 10.3636364 13.2609957 0.181818182"></polyline>
                    </g>
                </g>
                <ellipse id="Oval" stroke="#002B60" stroke-width="4.8" stroke-linecap="round" cx="26.5" cy="79.0263158" rx="2.40909091" ry="2.39473684"></ellipse>
            </g>
        </g>
    </g>
</svg>