<?xml version="1.0" encoding="UTF-8"?>
<svg width="30px" height="30px" viewBox="0 0 30 30" version="1.1" xmlns="http://www.w3.org/2000/svg" xmlns:xlink="http://www.w3.org/1999/xlink">
    <!-- Generator: sketchtool 55.2 (78181) - https://sketchapp.com -->
    <title>E10872DF-08F2-4808-90EE-54C279913D9B_svg</title>
    <desc>Created with sketchtool.</desc>
    <g id="Internet-banking" stroke="none" stroke-width="1" fill="none" fill-rule="evenodd">
        <g id="IB-iconset-ONBOARDING2" transform="translate(-370.000000, -178.000000)" fill="#0173A7">
            <g id="other_field_show_pwd" transform="translate(370.000000, 178.000000)">
                <g id="CCS/input/show_password-2">
                    <g transform="translate(2.000000, 7.000000)">
                        <path d="M13,10.4 C11.5752,10.4 10.4,9.2352 10.4,7.8 C10.4,6.3648 11.5752,5.2 13,5.2 C14.4352,5.2 15.6,6.3648 15.6,7.8 C15.6,9.2352 14.4352,10.4 13,10.4 Z M13,4.16 C10.9928,4.16 9.36,5.7928 9.36,7.8 C9.36,9.8072 10.9928,11.44 13,11.44 C15.0176,11.44 16.64,9.8072 16.64,7.8 C16.64,5.7928 15.0176,4.16 13,4.16 Z M13,14.56 C6.8536,14.56 1.924,9.1208 1.1128,7.8 C1.924,6.4688 6.8536,1.04 13,1.04 C18.9488,1.04 24.1176,6.344 24.908,7.8 C24.1176,9.256 18.9488,14.56 13,14.56 Z M13,0 C5.824,0 0,6.8848 0,7.8 C0,8.7152 5.824,15.6 13,15.6 C20.1864,15.6 26,8.7776 26,7.8 C26,6.8224 20.1864,0 13,0 L13,0 Z" id="CCS/input/show_password"></path>
                    </g>
                </g>
            </g>
        </g>
    </g>
</svg>