<?xml version="1.0" encoding="UTF-8"?>
<svg width="100px" height="100px" viewBox="0 0 100 100" version="1.1" xmlns="http://www.w3.org/2000/svg" xmlns:xlink="http://www.w3.org/1999/xlink">
    <!-- Generator: sketchtool 54.1 (76490) - https://sketchapp.com -->
    <title>D8C0AEA6-82C9-4931-80B3-533A13AC0673_svg</title>
    <desc>Created with sketchtool.</desc>
    <defs>
        <polygon id="path-1" points="0 0.203524996 61.7964983 0.203524996 61.7964983 61.9999995 0 61.9999995"></polygon>
    </defs>
    <g id="Internet-banking" stroke="none" stroke-width="1" fill="none" fill-rule="evenodd">
        <g id="IB-iconset-WARNINGS" transform="translate(-765.000000, -628.000000)">
            <g id="warning_no_access" transform="translate(765.000000, 628.000000)">
                <g id="Group-4">
                    <g>
                        <g id="Social_banking" fill="#0BB6C9">
                            <circle id="Oval" cx="50" cy="50" r="50"></circle>
                        </g>
                        <g id="Group-10" transform="translate(19.000000, 19.000000)">
                            <g id="Group-3">
                                <mask id="mask-2" fill="white">
                                    <use xlink:href="#path-1"></use>
                                </mask>
                                <g id="Clip-2"></g>
                                <path d="M30.8981253,2.83152508 C23.3351252,2.83152508 16.2326251,5.76877513 10.899125,11.1025252 C5.56537496,16.4362753 2.62812492,23.5387755 2.62812492,31.1017756 C2.62812492,38.6647758 5.56537496,45.7672759 10.899125,51.101026 C16.2326251,56.4347761 23.3351252,59.3720262 30.8981253,59.3720262 C38.4613754,59.3720262 45.5638755,56.4347761 50.8973756,51.101026 C56.2311257,45.7672759 59.1683757,38.6647758 59.1683757,31.1017756 C59.1683757,23.5387755 56.2311257,16.4362753 50.8973756,11.1025252 C45.5638755,5.76877513 38.4613754,2.83152508 30.8981253,2.83152508 M30.8981243,62.0000233 C13.8608747,62.0000233 -0.000124999997,48.1390237 -0.000124999997,31.1017741 C-0.000124999997,14.0645246 13.8608747,0.203524996 30.8981243,0.203524996 C47.9353739,0.203524996 61.7966236,14.0645246 61.7966236,31.1017741 C61.7966236,48.1390237 47.9353739,62.0000233 30.8981243,62.0000233" id="Fill-1" fill="#FFFFFF" mask="url(#mask-2)"></path>
                            </g>
                            <path d="M18.9998765,28.9999997 C16.7943369,28.9999997 14.9999996,27.2056072 14.9999996,24.9999998 C14.9999996,22.7943923 16.7943369,20.9999998 18.9998765,20.9999998 C21.2056621,20.9999998 22.9999994,22.7943923 22.9999996,24.9999998 C22.9999994,27.2056072 21.2056621,28.9999997 18.9998765,28.9999997" id="Fill-4" fill="#FFFFFF"></path>
                            <path d="M43.0001214,28.9999997 C40.7943359,28.9999997 38.9999986,27.2056072 38.9999986,24.9999998 C38.9999986,22.7943923 40.7943359,20.9999998 43.0001214,20.9999998 C45.2056611,20.9999998 46.9999984,22.7943923 46.9999986,24.9999998 C46.9999984,27.2056072 45.2056611,28.9999997 43.0001214,28.9999997" id="Fill-6" fill="#FFFFFF"></path>
                            <path d="M18.4909334,45.0000018 C17.8141898,45.0000018 17.2015902,44.5300816 17.0399872,43.8328945 C16.8512846,43.0191732 17.3485246,42.2046953 18.1505727,42.012994 L43.1662181,36.0402397 C43.9675203,35.8497997 44.7713087,36.3535199 44.9600113,37.1669889 C45.1487139,37.9807101 44.6514739,38.7951881 43.8494258,38.9868893 L18.8337804,44.9596436 C18.7189179,44.9868854 18.6040555,45.0000018 18.4909334,45.0000018" id="Fill-8" fill="#FFFFFF"></path>
                        </g>
                    </g>
                </g>
            </g>
        </g>
    </g>
</svg>