<?xml version="1.0" encoding="UTF-8"?>
<svg width="20px" height="20px" viewBox="0 0 20 20" version="1.1" xmlns="http://www.w3.org/2000/svg" xmlns:xlink="http://www.w3.org/1999/xlink">
    <!-- Generator: sketchtool 49 (51002) - http://www.bohemiancoding.com/sketch -->
    <title>C1CCD294-2FFE-4693-B1DD-9A60D920C5F0_svg</title>
    <desc>Created with sketchtool.</desc>
    <defs>
        <path d="M12.2907356,11.5836288 L19.3743687,18.6672619 C19.5696308,18.862524 19.5696308,19.1791065 19.3743687,19.3743687 C19.1791065,19.5696308 18.862524,19.5696308 18.6672619,19.3743687 L11.5836288,12.2907356 C10.3555678,13.3555923 8.75303863,14 7,14 C3.13400675,14 -4.4408921e-16,10.8659932 -4.4408921e-16,7 C-4.4408921e-16,3.13400675 3.13400675,4.4408921e-16 7,4.4408921e-16 C10.8659932,4.4408921e-16 14,3.13400675 14,7 C14,8.75303863 13.3555923,10.3555678 12.2907356,11.5836288 Z M7,13 C10.3137085,13 13,10.3137085 13,7 C13,3.6862915 10.3137085,1 7,1 C3.6862915,1 1,3.6862915 1,7 C1,10.3137085 3.6862915,13 7,13 Z" id="path-1"></path>
    </defs>
    <g id="Internet-banking" stroke="none" stroke-width="1" fill="none" fill-rule="evenodd">
        <g id="IB-iconset-OTHER-3" transform="translate(-195.000000, -876.000000)">
            <g id="corp_other_search" transform="translate(195.000000, 876.000000)">
                <g id="ib/other/search">
                    <g id="colour">
                        <mask id="mask-2" fill="white">
                            <use xlink:href="#path-1"></use>
                        </mask>
                        <use id="Mask" fill="#0173A7" xlink:href="#path-1"></use>
                        <g id="colour/background_dark_green_CORPORATE" mask="url(#mask-2)" fill="#009999">
                            <rect id="Rectangle-14" x="0" y="0" width="20" height="20"></rect>
                        </g>
                    </g>
                </g>
            </g>
        </g>
    </g>
</svg>