<?xml version="1.0" encoding="UTF-8"?>
<svg width="16px" height="18px" viewBox="0 0 16 18" version="1.1" xmlns="http://www.w3.org/2000/svg" xmlns:xlink="http://www.w3.org/1999/xlink">
    <title>54B0E037-5A3A-4FEB-BE30-F359A741045C@0,5x</title>
    <g id="iconset-mobile-v2.0" stroke="none" stroke-width="1" fill="none" fill-rule="evenodd">
        <g id="Other-4" transform="translate(-912.000000, -399.000000)" fill="#ABB5BA" fill-rule="nonzero">
            <g id="other_search" transform="translate(912.000000, 399.548391)">
                <path d="M6.67765154,1.21635525 C9.94370446,1.21635525 12.5913635,3.86401427 12.5913635,7.13006719 C12.5913635,8.58269027 12.0676165,9.91298569 11.1986595,10.9424166 L15.2360604,14.9797567 L14.5289536,15.6868635 L10.4909996,11.650232 C9.4614305,12.5196934 8.13074441,13.0437791 6.67765154,13.0437791 C3.41159862,13.0437791 0.763939598,10.3961201 0.763939598,7.13006719 C0.763939598,3.86401427 3.41159862,1.21635525 6.67765154,1.21635525 Z M6.67765154,2.21635525 C3.96388337,2.21635525 1.7639396,4.41629902 1.7639396,7.13006719 C1.7639396,9.84383536 3.96388337,12.0437791 6.67765154,12.0437791 C9.39141971,12.0437791 11.5913635,9.84383536 11.5913635,7.13006719 C11.5913635,4.41629902 9.39141971,2.21635525 6.67765154,2.21635525 Z" id="icon"></path>
            </g>
        </g>
    </g>
</svg>