<?xml version="1.0" encoding="utf-8"?>
<!-- Generator: Adobe Illustrator 18.1.0, SVG Export Plug-In . SVG Version: 6.00 Build 0)  -->
<!DOCTYPE svg PUBLIC "-//W3C//DTD SVG 1.1//EN" "http://www.w3.org/Graphics/SVG/1.1/DTD/svg11.dtd">
<svg version="1.1" id="Camada_1" xmlns="http://www.w3.org/2000/svg" xmlns:xlink="http://www.w3.org/1999/xlink" x="0px" y="0px"
	 viewBox="0 0 60 60" enable-background="new 0 0 60 60" xml:space="preserve">
<g>
	<rect x="0" y="0" opacity="0" fill="none" stroke="#000000" stroke-miterlimit="10" width="60" height="60"/>
	<path fill="#1D1D1B" d="M29.4,19.6c0.3-0.6,0.8-0.6,1.1,0l2.6,5.3c0.3,0.6,1.1,1.2,1.8,1.3l5.8,0.8c0.7,0.1,0.8,0.6,0.3,1.1
		L37,32.2c-0.5,0.5-0.8,1.4-0.7,2.1l1,5.8c0.1,0.7-0.3,1-0.9,0.7L31.1,38c-0.6-0.3-1.6-0.3-2.3,0l-5.2,2.7c-0.6,0.3-1,0-0.9-0.7
		l1-5.8c0.1-0.7-0.2-1.6-0.7-2.1l-4.2-4.1c-0.5-0.5-0.3-1,0.4-1.1l5.8-0.8c0.7-0.1,1.5-0.7,1.8-1.3L29.4,19.6z"/>
</g>
</svg>
