<?xml version="1.0" encoding="UTF-8"?>
<svg width="22px" height="21px" viewBox="0 0 22 21" version="1.1" xmlns="http://www.w3.org/2000/svg" xmlns:xlink="http://www.w3.org/1999/xlink">
    <!-- Generator: Sketch 46.1 (44463) - http://www.bohemiancoding.com/sketch -->
    <title>Group 7</title>
    <desc>Created with Sketch.</desc>
    <defs></defs>
    <g id="Login/Register-(One-solution)" stroke="none" stroke-width="1" fill="none" fill-rule="evenodd">
        <g id="Registration-|-Login-details" transform="translate(-854.000000, -401.000000)">
            <g id="Group-7" transform="translate(855.000000, 402.000000)">
                <ellipse id="Oval" stroke="#1C619D" cx="10" cy="9.6969697" rx="10" ry="9.6969697"></ellipse>
                <path d="M10.756,11.952 L8.948,11.952 L8.948,10.976 C8.948,10.5493312 8.99866616,10.232001 9.1,10.024 C9.20133384,9.81599896 9.42266496,9.54133504 9.764,9.2 L10.932,8.032 C11.1773346,7.765332 11.3,7.43466864 11.3,7.04 C11.3,6.64533136 11.1720013,6.31733464 10.916,6.056 C10.6599987,5.79466536 10.3293354,5.664 9.924,5.664 C9.51866464,5.664 9.18000136,5.78933208 8.908,6.04 C8.63599864,6.29066792 8.47866688,6.62399792 8.436,7.04 L6.5,7.04 C6.6066672,6.09066192 6.97733016,5.34666936 7.612,4.808 C8.24666984,4.26933064 9.03866192,4 9.988,4 C10.9373381,4 11.7106637,4.25866408 12.308,4.776 C12.9053363,5.29333592 13.204,6.01599536 13.204,6.944 C13.204,7.5840032 13.0280018,8.1173312 12.676,8.544 C12.4733323,8.80000128 12.3186672,8.9813328 12.212,9.088 C12.1053328,9.1946672 11.9640009,9.33066584 11.788,9.496 C11.6119991,9.66133416 11.4626673,9.80533272 11.34,9.928 C11.2173327,10.0506673 11.118667,10.1546662 11.044,10.24 C10.851999,10.4746678 10.756,10.8053312 10.756,11.232 L10.756,11.952 Z M9.012,15.16 C8.76666544,14.9306655 8.644,14.653335 8.644,14.328 C8.644,14.002665 8.7639988,13.7226678 9.004,13.488 C9.2440012,13.2533322 9.53199832,13.136 9.868,13.136 C10.2040017,13.136 10.4946654,13.2506655 10.74,13.48 C10.9853346,13.7093345 11.108,13.986665 11.108,14.312 C11.108,14.637335 10.9880012,14.9173322 10.748,15.152 C10.5079988,15.3866678 10.2200017,15.504 9.884,15.504 C9.54799832,15.504 9.25733456,15.3893345 9.012,15.16 Z" id="?" fill="#1C619D"></path>
            </g>
        </g>
    </g>
</svg>