<?xml version="1.0" encoding="UTF-8"?>
<svg width="30px" height="30px" viewBox="0 0 30 30" version="1.1" xmlns="http://www.w3.org/2000/svg" xmlns:xlink="http://www.w3.org/1999/xlink">
    <!-- Generator: sketchtool 61.1 (101010) - https://sketch.com -->
    <title>2CB4DD86-4CA2-4606-9F2B-57E6DDA659B4@2x</title>
    <desc>Created with sketchtool.</desc>
    <defs>
        <path d="M15,0 C23.2842712,0 30,6.71572875 30,15 C30,23.2842712 23.2842712,30 15,30 C6.71572875,30 0,23.2842712 0,15 C0,6.71572875 6.71572875,0 15,0 Z M15,1 C7.2680135,1 1,7.2680135 1,15 C1,22.7319865 7.2680135,29 15,29 C22.7319865,29 29,22.7319865 29,15 C29,7.2680135 22.7319865,1 15,1 Z" id="path-1"></path>
    </defs>
    <g id="Internet-banking" stroke="none" stroke-width="1" fill="none" fill-rule="evenodd">
        <g id="IB-iconset-OTHER" transform="translate(-618.000000, -912.000000)">
            <g id="action_edit" transform="translate(618.000000, 912.000000)">
                <g id="ib/other/action/edit">
                    <mask id="mask-2" fill="white">
                        <use xlink:href="#path-1"></use>
                    </mask>
                    <use id="combine" fill="#FFFFFF" xlink:href="#path-1"></use>
                    <g id="🔵background-colour-colour/background_dark_blue_RETAIL" mask="url(#mask-2)" fill="#0173A7">
                        <rect id="Rectangle-14" x="0" y="0" width="30" height="30"></rect>
                    </g>
                    <path d="M19.0305336,13.9225017 L16.9075336,11.7995017 L18.3235336,10.3835017 C18.6615336,10.0235017 18.6955336,10.0265017 19.0305336,10.3835017 L20.4465336,11.7995017 C20.7905336,12.1485017 20.8125336,12.1425017 20.4465336,12.5065017 L19.0305336,13.9225017 M13.7225336,19.2305017 C12.9965336,18.5035017 11.8055336,17.3135017 11.5995336,17.1075017 L16.2005336,12.5065017 L18.3235336,14.6305017 L13.7225336,19.2305017 M10.0935336,20.7365017 L10.8915336,17.8145017 L13.0145336,19.9385017 L10.0935336,20.7365017 M21.5085336,11.4455017 L19.3845336,9.32250174 C18.9565336,8.89450174 18.4015336,8.89050174 17.9685336,9.32250174 L10.1095336,17.1825017 L9.02553356,21.0965017 C8.91053356,21.6395017 9.19053356,21.9205017 9.73353356,21.8045017 L13.6475336,20.7205017 L21.5085336,12.8605017 C21.9395336,12.4285017 21.9355336,11.8745017 21.5085336,11.4455017" id="Fill-1" fill="#0173A7"></path>
                </g>
            </g>
        </g>
    </g>
</svg>