<?xml version="1.0" encoding="utf-8"?>
<!-- Generator: Adobe Illustrator 23.0.3, SVG Export Plug-In . SVG Version: 6.00 Build 0)  -->
<svg version="1.1" id="Layer_1" xmlns="http://www.w3.org/2000/svg" xmlns:xlink="http://www.w3.org/1999/xlink" x="0px" y="0px"
	 viewBox="0 0 1914.77 713.01" style="enable-background:new 0 0 1914.77 713.01;" xml:space="preserve">
<style type="text/css">
	.st0{fill:#464547;}
</style>
<g>
	<path class="st0" d="M405.48,296.35c-9.14-10.9-20.43-19.59-33.56-25.85c-13.17-6.32-28.31-9.52-45.01-9.52
		c-15.8,0-30.58,3.11-43.93,9.25c-13.36,6.16-24.99,14.71-34.57,25.39c-9.72,10.73-17.34,23.48-22.67,37.87
		c-5.39,14.36-8.12,29.95-8.12,46.33c0,17.38,3.02,33.64,8.97,48.32c6.07,14.66,14.28,27.31,24.42,37.59
		c10.28,10.41,22.45,18.57,36.17,24.26c13.73,5.74,28.55,8.66,44.06,8.66c21.44,0,39.79-3.95,54.57-11.75
		c14.54-7.7,27.67-18.1,39.02-30.91l1.58-1.78l-24.16-21.7l-1.6,1.65c-8.95,9.25-18.96,16.8-29.75,22.42
		c-10.67,5.52-23.73,8.31-38.81,8.31c-9.58,0-18.73-1.6-27.23-4.77c-8.64-3.19-16.5-7.9-23.34-13.99
		c-7.03-6.23-12.79-13.83-17.12-22.57c-4.14-8.3-6.87-17.72-8.14-28.03h176.25l0.22-2.14c0.25-2.46,0.48-4.84,0.48-6.92v-4.98
		c0-16.47-2.35-32.24-7-46.85C421.54,320.01,414.56,307.12,405.48,296.35z M394.56,363.62H256.31c1.25-9.28,3.76-18.09,7.46-26.22
		c4.04-8.84,9.2-16.62,15.36-23.13c5.99-6.44,13.13-11.5,21.26-15.06c7.9-3.6,16.53-5.42,25.64-5.42c10.56,0,20.03,1.94,28.14,5.77
		c8.11,3.85,15.07,9.13,20.71,15.69c5.68,6.57,10.15,14.13,13.66,23.09C391.56,346.19,393.58,354.68,394.56,363.62z"/>
	<path class="st0" d="M665.13,292.05c-10.26-10.07-22.03-17.85-35.01-23.11c-13.12-5.28-26.57-7.96-39.95-7.96
		c-10.7,0-20.19,1.39-28.99,4.25c-8.83,2.86-16.78,6.57-23.64,11.02c-7.13,4.64-13.59,10.08-19.17,16.14
		c-3.93,4.17-7.63,8.55-11.2,13.25V173.91h-37.96v319.52h37.96v-37.77c3.32,4.32,6.94,8.49,10.81,12.46
		c5.54,5.73,12,10.94,19.19,15.49c7.05,4.37,15.07,7.93,23.86,10.59c8.88,2.63,18.69,3.97,29.14,3.97c13.71,0,27.28-2.75,40.33-8.17
		c13.05-5.41,24.78-13.27,34.87-23.35c10.13-10.11,18.35-22.62,24.42-37.19c6.12-14.53,9.22-31.23,9.22-49.64v-0.9
		c0-18.69-3.11-35.46-9.22-49.82C683.73,314.67,675.44,302.21,665.13,292.05z M660.21,379.4v0.85c0,13.21-2.04,25.09-6.07,35.31
		c-4.18,10.55-9.52,19.12-16.34,26.2c-6.81,7.08-14.93,12.54-24.14,16.23c-18.5,7.4-39.59,7.76-58.56-0.42
		c-9.18-3.91-17.63-9.6-25.13-16.91c-7.34-7.18-13.26-16.06-17.6-26.4c-4.32-10.28-6.51-21.87-6.51-34.44v-0.9
		c0-12.32,2.19-23.67,6.5-33.74c4.32-10.2,10.25-19.08,17.62-26.41c7.4-7.41,15.85-13.2,25.12-17.23c9.21-4,18.98-6.02,29.01-6.02
		c10.18,0,20.03,1.96,29.25,5.81c9.12,3.88,17.27,9.52,24.21,16.74c6.92,7.26,12.49,16.14,16.56,26.38
		C658.17,354.66,660.21,366.41,660.21,379.4z"/>
	<polygon class="st0" points="1404.15,265.72 1356.07,265.72 1239.21,387.65 1239.21,265.72 1201.2,265.72 1201.2,493.43 
		1239.21,493.43 1239.21,433.81 1281.8,390.72 1360.63,493.43 1406.35,493.43 1308.03,364.02 	"/>
	<path class="st0" d="M824.4,262.27c-16.57,0-31.43,1.8-44.17,5.36c-12.83,3.53-25.58,8.28-37.9,14.1l-1.96,0.93l11.54,31.81
		l2.37-1.11c10.25-4.82,20.78-8.66,31.32-11.42c10.38-2.82,22.29-4.25,35.38-4.25c20.31,0,36.15,4.9,47.09,14.55
		c11.08,9.8,16.47,23.86,16.47,42.99v3.72c-9.11-2.48-18.54-4.52-28.06-6.1c-10.57-1.75-22.89-2.61-37.66-2.61
		c-14.34,0-27.54,1.63-39.23,4.84c-11.83,3.18-22.23,7.93-30.94,14.11c-8.78,6.29-15.62,14.19-20.33,23.46
		c-4.81,9.44-7.15,20.17-7.15,32.79v0.91c0,11.87,2.47,22.42,7.34,31.34c4.99,8.94,11.52,16.51,19.42,22.49
		c7.96,6.08,17.24,10.64,27.56,13.56c10.18,2.92,20.69,4.4,31.24,4.4c19.91,0,36.79-3.94,50.16-11.73
		c11.01-6.43,20.28-13.81,27.64-22.01v29h37.51V354.81c0-28.75-8.08-51.38-23.99-67.25C881.34,270.78,856.56,262.27,824.4,262.27z
		 M884.95,390.19v18.78c0,8.63-1.8,16.2-5.52,23.13c-3.66,6.87-8.79,12.99-15.22,18.16c-6.51,5.11-14.15,9.06-22.71,11.78
		c-8.61,2.78-18.05,4.19-28.06,4.19c-7.31,0-14.24-0.97-20.61-2.9c-6.68-2.02-12.27-4.71-17.11-8.26
		c-4.82-3.46-8.71-7.88-11.56-13.13c-2.78-5.16-4.2-11.04-4.2-17.49v-0.86c0-12.86,5.22-22.83,15.97-30.49
		c10.88-7.82,26.53-11.79,46.53-11.79c13.31,0,25.46,1,36.1,2.97C868.12,386.08,876.98,388.07,884.95,390.19z"/>
	<path class="st0" d="M1138.22,286.56c-7.63-8.23-16.92-14.59-27.6-18.91c-10.78-4.43-23.2-6.68-36.89-6.68
		c-19.68,0-35.95,4.43-48.37,13.16c-10.12,7.11-18.69,15.47-25.57,24.92v-33.34h-38v227.71h38V363.67c0-9.96,1.6-19.23,4.76-27.52
		c3.21-8.31,7.77-15.47,13.56-21.32c5.67-5.86,12.56-10.46,20.47-13.67c7.83-3.15,16.48-4.75,25.69-4.75
		c19.01,0,33.77,5.8,43.89,17.24c10.15,11.54,15.3,27.51,15.3,47.47v132.31h38.04V352.65c0-13.48-2.02-25.93-6.02-37.02
		C1151.45,304.27,1145.8,294.76,1138.22,286.56z"/>
	<rect x="1437.86" y="265.72" class="st0" width="37.98" height="227.71"/>
	<polygon class="st0" points="1511.51,265.72 1511.51,303.72 1586,303.72 1586,493.43 1623.99,493.43 1623.99,303.72 
		1698.47,303.72 1698.47,265.72 	"/>
</g>
</svg>
