<?xml version="1.0" encoding="UTF-8"?>
<svg width="169px" height="135px" viewBox="0 0 169 135" version="1.1" xmlns="http://www.w3.org/2000/svg" xmlns:xlink="http://www.w3.org/1999/xlink">
    <!-- Generator: sketchtool 56.3 (101010) - https://sketch.com -->
    <title>EA9E0107-E05A-46E3-8CEB-D7F2792CB540</title>
    <desc>Created with sketchtool.</desc>
    <defs>
        <polygon id="path-1" points="0.0389577957 0.295964297 136.017387 0.295964297 136.017387 93.2902315 0.0389577957 93.2902315"></polygon>
        <polygon id="path-3" points="0.012459289 0.128812622 8.73442592 0.128812622 8.73442592 32.7540374 0.012459289 32.7540374"></polygon>
    </defs>
    <g id="Onboarding-+-account-opening-V2" stroke="none" stroke-width="1" fill="none" fill-rule="evenodd" opacity="0.15">
        <g id="AO_product_list" transform="translate(-880.000000, -403.000000)">
            <g id="icon_no-image" transform="translate(880.000000, 403.000000)">
                <g id="Group-13">
                    <g>
                        <g id="Group-3" transform="translate(32.687042, 41.372632)">
                            <mask id="mask-2" fill="white">
                                <use xlink:href="#path-1"></use>
                            </mask>
                            <g id="Clip-2"></g>
                            <path d="M93.6482807,48.5177313 L84.1378191,34.7548177 C83.3132229,33.5616763 81.968579,32.8326331 80.5206379,32.7899574 C79.1546222,32.750838 77.6870903,33.3945298 76.7930357,34.5343266 L73.1865404,39.1326334 L68.0288069,31.7461808 L80.2214324,13.3476193 L98.4373502,43.2721764 L93.6482807,48.5177313 Z M84.2802979,2.48309715 C83.4699496,1.15125965 82.0309135,0.326196102 80.4707703,0.295961125 C78.9177512,0.294189326 77.4377524,1.03745778 76.5775365,2.3372885 L47.892987,45.631787 L43.5046392,33.0211174 C42.9293809,31.3709903 41.461849,30.1938522 39.7253883,29.9911426 C37.9996136,29.799102 36.2880867,30.5957151 35.3495074,32.0698049 L0.753867699,86.2892828 C-0.599681139,88.4088426 0.0254447058,91.2236607 2.15016019,92.5768361 C4.27309468,93.9282333 7.09239443,93.3041011 8.44772426,91.180985 L37.9818037,44.8974093 L42.3042551,57.3160383 C42.8706084,58.9537183 44.3221114,60.1255219 46.0443242,60.3389004 C47.7487272,60.5451663 49.4584731,59.78056 50.4166432,58.3331425 L62.6199545,39.9185776 L69.230972,49.3925831 C70.0591302,50.5803901 71.4002121,51.3005426 72.8428102,51.3432183 C74.2747224,51.3876721 75.6692339,50.7368677 76.5615076,49.5970709 L80.153755,45.0254364 L89.4006307,58.4078249 C90.1913882,59.5529562 91.4594497,60.2713305 92.8486183,60.3673509 C92.9501344,60.3744635 93.0552126,60.3780198 93.1567287,60.3780198 C94.4354762,60.3780198 95.6590131,59.8410172 96.526353,58.8914829 L103.381365,51.3805595 L127.558241,91.1009681 C128.414895,92.5128225 129.919828,93.2880978 131.458599,93.2880978 C132.267166,93.2880978 133.084638,93.0747192 133.825528,92.6266244 C135.976959,91.3196811 136.660857,88.5190882 135.355395,86.3692998 L84.2802979,2.48309715 Z" id="Fill-1" fill="#000000" mask="url(#mask-2)"></path>
                        </g>
                        <path d="M42.6360928,82.8645818 C43.4679469,84.3445762 45.0128189,85.1789474 46.6038064,85.1789474 C47.3540714,85.1789474 48.1167522,84.9937276 48.8155806,84.605648 C51.0060707,83.3884893 51.7882619,80.6348881 50.566199,78.4581144 C48.7942965,75.3040858 47.8560218,71.7143495 47.8560218,68.0716934 C47.8560218,56.3181737 57.4711204,46.7555398 69.2908985,46.7555398 C73.5867423,46.7555398 77.7300498,48.0132704 81.2703075,50.3929039 C83.3455086,51.7899905 86.1745222,51.244915 87.5792737,49.1792732 C88.9840253,47.1118674 88.4341856,44.3035823 86.3572108,42.9082598 C81.3093284,39.5143274 75.4083077,37.7221053 69.2908985,37.7221053 C52.4640325,37.7221053 38.7712524,51.3384069 38.7712524,68.0734574 C38.7712524,73.2525559 40.1068305,78.3699145 42.6360928,82.8645818" id="Fill-4" fill="#000000"></path>
                        <g id="Group-8" transform="translate(64.020726, 0.000000)">
                            <mask id="mask-4" fill="white">
                                <use xlink:href="#path-3"></use>
                            </mask>
                            <g id="Clip-7"></g>
                            <path d="M4.37429386,32.7540374 C6.78334769,32.7540374 8.73442592,30.7149387 8.73442592,28.1972032 L8.73442592,4.68529097 C8.73442592,2.16755555 6.78334769,0.128456758 4.37429386,0.128456758 C1.96524003,0.128456758 0.012459289,2.16755555 0.012459289,4.68529097 L0.012459289,28.1972032 C0.012459289,30.7149387 1.96694254,32.7540374 4.37429386,32.7540374" id="Fill-6" fill="#000000" mask="url(#mask-4)"></path>
                        </g>
                        <path d="M35.2147337,43.3784192 C36.1085427,44.2721046 37.2812202,44.7189474 38.4538976,44.7189474 C39.6229998,44.7189474 40.7956772,44.2721046 41.6894862,43.3784192 C43.4771042,41.5910483 43.4771042,38.6937201 41.6894862,36.9045618 L24.987771,20.2015808 C23.200153,18.4142099 20.2988489,18.4142099 18.5130185,20.2015808 C16.7254005,21.9889517 16.7254005,24.8880673 18.5130185,26.6754382 L35.2147337,43.3784192 Z" id="Fill-9" fill="#000000"></path>
                        <path d="M28.4024118,63.8842105 L4.72535612,63.8842105 C2.18993658,63.8842105 0.136515527,65.8576895 0.136515527,68.2961242 C0.136515527,70.7311148 2.18993658,72.7063158 4.72535612,72.7063158 L28.4024118,72.7063158 C30.9378313,72.7063158 32.9912524,70.7328368 32.9912524,68.2961242 C32.9912524,65.8576895 30.9360395,63.8842105 28.4024118,63.8842105" id="Fill-11" fill="#000000"></path>
                    </g>
                </g>
            </g>
        </g>
    </g>
</svg>