<?xml version="1.0" encoding="UTF-8"?>
<svg width="200px" height="60px" viewBox="0 0 200 60" version="1.1" xmlns="http://www.w3.org/2000/svg" xmlns:xlink="http://www.w3.org/1999/xlink">
    <!-- Generator: sketchtool 55.2 (78181) - https://sketchapp.com -->
    <title>B94B823E-B450-41C7-8737-2CB03EB4514B_svg</title>
    <desc>Created with sketchtool.</desc>
    <g id="Internet-banking" stroke="none" stroke-width="1" fill="none" fill-rule="evenodd">
        <g id="IB-iconset-ONBOARDING2" transform="translate(-1065.000000, -148.000000)">
            <g id="other_store_ios" transform="translate(1065.000000, 148.000000)">
                <g>
                    <rect id="backfround-copy" fill="#000000" x="0" y="0" width="200" height="60" rx="8"></rect>
                    <path d="M76.7673629,46.0788863 L80.1288363,46.0788863 L72.7703168,25.4806681 L69.3664719,25.4806681 L62.0079524,46.0788863 L65.2564351,46.0788863 L67.1349055,40.6117224 L74.9030163,40.6117224 L76.7673629,46.0788863 Z M70.9059702,29.220608 L71.1460755,29.220608 L74.0979576,37.9281014 L67.9399643,37.9281014 L70.9059702,29.220608 Z M89.0418389,30.2769268 C86.9515109,30.2769268 85.1436597,31.3332457 84.2114864,33.1032936 L83.985505,33.1032936 L83.985505,30.5338693 L81.0618705,30.5338693 L81.0618705,51.1178129 L84.0984957,51.1178129 L84.0984957,43.7235807 L84.3386009,43.7235807 C85.1436597,45.3651573 86.8808917,46.3358287 89.0700866,46.3358287 C92.954142,46.3358287 95.4258136,43.238245 95.4258136,38.2992405 C95.4258136,33.360236 92.954142,30.2769268 89.0418389,30.2769268 L89.0418389,30.2769268 Z M88.1802848,43.5808349 C85.637994,43.5808349 84.0420003,41.5538446 84.0420003,38.3135151 C84.0420003,35.058911 85.637994,33.0319207 88.1944086,33.0319207 C90.7649471,33.0319207 92.3044454,35.0160872 92.3044454,38.2992405 C92.3044454,41.5966684 90.7649471,43.5808349 88.1802848,43.5808349 L88.1802848,43.5808349 Z M104.790779,30.2769268 C102.700451,30.2769268 100.8926,31.3332457 99.9604265,33.1032936 L99.7344451,33.1032936 L99.7344451,30.5338693 L96.8108106,30.5338693 L96.8108106,51.1178129 L99.8474358,51.1178129 L99.8474358,43.7235807 L100.087541,43.7235807 C100.8926,45.3651573 102.629832,46.3358287 104.819027,46.3358287 C108.703082,46.3358287 111.174754,43.238245 111.174754,38.2992405 C111.174754,33.360236 108.703082,30.2769268 104.790779,30.2769268 L104.790779,30.2769268 Z M103.929225,43.5808349 C101.386934,43.5808349 99.7909404,41.5538446 99.7909404,38.3135151 C99.7909404,35.058911 101.386934,33.0319207 103.943349,33.0319207 C106.513887,33.0319207 108.053386,35.0160872 108.053386,38.2992405 C108.053386,41.5966684 106.513887,43.5808349 103.929225,43.5808349 L103.929225,43.5808349 Z M117.602822,40.5403495 C117.828803,44.223191 120.865428,46.5784966 125.385056,46.5784966 C130.215409,46.5784966 133.23791,44.1089943 133.23791,40.1692104 C133.23791,37.0716267 131.514802,35.3586771 127.334146,34.3737311 L125.088456,33.8170225 C122.433174,33.1889411 121.359763,32.3467409 121.359763,30.8764592 C121.359763,29.0207638 123.026375,27.8074246 125.526295,27.8074246 C127.8991,27.8074246 129.537465,28.9922147 129.834065,30.8907338 L132.913062,30.8907338 C132.729452,27.4220109 129.706951,24.9810579 125.568666,24.9810579 C121.119657,24.9810579 118.153651,27.4220109 118.153651,31.0905779 C118.153651,34.1167887 119.834388,35.9153857 123.52071,36.7861351 L126.147744,37.4284912 C128.845397,38.0708472 130.031799,39.0129695 130.031799,40.5831732 C130.031799,42.4103194 128.167452,43.7378553 125.625162,43.7378553 C122.899261,43.7378553 121.006667,42.4959669 120.738314,40.5403495 L117.602822,40.5403495 Z M135.851681,26.7653803 L135.851681,30.6052422 L133.323514,30.6052422 L133.323514,33.1889411 L135.851681,33.1889411 L135.851681,41.9678074 C135.851681,44.9654691 137.193446,46.1645338 140.569043,46.1645338 C141.162244,46.1645338 141.713074,46.0931609 142.193284,46.0075134 L142.193284,43.4523637 C141.769569,43.4951874 141.529464,43.5237366 141.063377,43.5237366 C139.552127,43.5237366 138.888306,42.8100076 138.888306,41.1827056 L138.888306,33.1889411 L142.334523,33.1889411 L142.334523,30.6052422 L138.888306,30.6052422 L138.888306,26.7653803 L135.851681,26.7653803 Z M149.863389,43.6522078 C147.222232,43.6522078 145.739229,41.6965904 145.739229,38.2992405 C145.739229,34.9304397 147.222232,32.9605478 149.863389,32.9605478 C152.490423,32.9605478 153.98755,34.9304397 153.98755,38.2992405 C153.98755,41.6823158 152.490423,43.6522078 149.863389,43.6522078 L149.863389,43.6522078 Z M149.863389,46.3786525 C154.35477,46.3786525 157.108918,43.3381671 157.108918,38.2992405 C157.108918,33.2888631 154.340646,30.2341031 149.863389,30.2341031 C145.372009,30.2341031 142.603737,33.2888631 142.603737,38.2992405 C142.603737,43.3381671 145.357885,46.3786525 149.863389,46.3786525 L149.863389,46.3786525 Z M158.493915,46.0788863 L161.53054,46.0788863 L161.53054,36.9003317 C161.53054,34.7163211 163.154781,33.2460394 165.442843,33.2460394 C165.951301,33.2460394 166.883475,33.3459614 167.12358,33.4316089 L167.12358,30.4053981 C166.798732,30.3197506 166.219654,30.2769268 165.781815,30.2769268 C163.77623,30.2769268 162.08137,31.390344 161.643531,32.917724 L161.417549,32.917724 L161.417549,30.5338693 L158.493915,30.5338693 L158.493915,46.0788863 Z M173.960378,32.8463511 C176.206069,32.8463511 177.674948,34.4308295 177.745567,36.8717826 L169.977456,36.8717826 C170.146942,34.445104 171.714688,32.8463511 173.960378,32.8463511 L173.960378,32.8463511 Z M177.731443,41.8821599 C177.16649,43.0954992 175.909468,43.7664044 174.073369,43.7664044 C171.644069,43.7664044 170.076323,42.0391803 169.977456,39.3127356 L169.977456,39.1414407 L180.838687,39.1414407 L180.838687,38.0708472 C180.838687,33.1889411 178.254025,30.2341031 173.974502,30.2341031 C169.638484,30.2341031 166.884336,33.3887852 166.884336,38.3563388 C166.884336,43.3238925 169.581989,46.3786525 173.988626,46.3786525 C177.505462,46.3786525 179.963009,44.6657029 180.655077,41.8821599 L177.731443,41.8821599 Z" id="App-Store" fill="#FFFFFF"></path>
                    <path d="M64.8537039,9.40246157 L64.8537039,19.2111369 L68.3577608,19.2111369 C71.2497848,19.2111369 72.9244684,17.4098209 72.9244684,14.2762108 C72.9244684,11.1901827 71.2363335,9.40246157 68.3577608,9.40246157 L64.8537039,9.40246157 Z M66.3602466,10.789135 L68.1896199,10.789135 C70.2005854,10.789135 71.3910232,12.0806446 71.3910232,14.2966031 C71.3910232,16.5465487 70.2207623,17.8244635 68.1896199,17.8244635 L66.3602466,17.8244635 L66.3602466,10.789135 Z M78.2256155,18.0555757 C76.9679214,18.0555757 76.2617295,17.1243293 76.2617295,15.5065436 C76.2617295,13.9023528 76.9679214,12.964309 78.2256155,12.964309 C79.476584,12.964309 80.1895015,13.9023528 80.1895015,15.5065436 C80.1895015,17.1175319 79.476584,18.0555757 78.2256155,18.0555757 L78.2256155,18.0555757 Z M78.2256155,19.3538827 C80.3643681,19.3538827 81.6758673,17.9060325 81.6758673,15.5065436 C81.6758673,13.1206497 80.3576425,11.666002 78.2256155,11.666002 C76.0868629,11.666002 74.7686381,13.1206497 74.7686381,15.5065436 C74.7686381,17.9060325 76.0801373,19.3538827 78.2256155,19.3538827 L78.2256155,19.3538827 Z M93.0099109,11.8087478 L91.5638989,11.8087478 L90.2591253,17.4574028 L90.1447895,17.4574028 L88.6382468,11.8087478 L87.2527656,11.8087478 L85.7462229,17.4574028 L85.6386127,17.4574028 L84.3271135,11.8087478 L82.8609246,11.8087478 L84.8786157,19.2111369 L86.3649815,19.2111369 L87.8715242,13.759607 L87.98586,13.759607 L89.4991284,19.2111369 L90.9989454,19.2111369 L93.0099109,11.8087478 Z M94.8473549,19.2111369 L96.2933669,19.2111369 L96.2933669,14.8811811 C96.2933669,13.7256199 97.0062844,13.0050935 98.1698196,13.0050935 C99.2459216,13.0050935 99.7705213,13.596469 99.7705213,14.7860173 L99.7705213,19.2111369 L101.216533,19.2111369 L101.216533,14.4189566 C101.216533,12.6584252 100.295121,11.666002 98.6607912,11.666002 C97.5577867,11.666002 96.7036308,12.1622136 96.347172,12.9847013 L96.2395618,12.9847013 L96.2395618,11.8087478 L94.8473549,11.8087478 L94.8473549,19.2111369 Z M103.659285,19.2111369 L105.105297,19.2111369 L105.105297,8.91984484 L103.659285,8.91984484 L103.659285,19.2111369 Z M110.709097,18.0555757 C109.451403,18.0555757 108.745211,17.1243293 108.745211,15.5065436 C108.745211,13.9023528 109.451403,12.964309 110.709097,12.964309 C111.960066,12.964309 112.672983,13.9023528 112.672983,15.5065436 C112.672983,17.1175319 111.960066,18.0555757 110.709097,18.0555757 L110.709097,18.0555757 Z M110.709097,19.3538827 C112.84785,19.3538827 114.159349,17.9060325 114.159349,15.5065436 C114.159349,13.1206497 112.841124,11.666002 110.709097,11.666002 C108.570345,11.666002 107.25212,13.1206497 107.25212,15.5065436 C107.25212,17.9060325 108.563619,19.3538827 110.709097,19.3538827 L110.709097,19.3538827 Z M118.633243,18.1031576 C117.846343,18.1031576 117.274664,17.7157048 117.274664,17.0495577 C117.274664,16.3970055 117.732008,16.0503372 118.740853,15.982363 L120.529873,15.8668068 L120.529873,16.485372 C120.529873,17.4030235 119.722796,18.1031576 118.633243,18.1031576 L118.633243,18.1031576 Z M118.263333,19.3334904 C119.225099,19.3334904 120.02545,18.9120505 120.462616,18.1711318 L120.576952,18.1711318 L120.576952,19.2111369 L121.969159,19.2111369 L121.969159,14.1538573 C121.969159,12.590451 120.933411,11.666002 119.097312,11.666002 C117.43608,11.666002 116.252367,12.4816923 116.104403,13.7528096 L117.503336,13.7528096 C117.664751,13.2294084 118.222979,12.9303219 119.030056,12.9303219 C120.018724,12.9303219 120.529873,13.3721541 120.529873,14.1538573 L120.529873,14.7928147 L118.54581,14.9083708 C116.80387,15.0171295 115.821927,15.7852378 115.821927,17.1175319 C115.821927,18.4702182 116.850949,19.3334904 118.263333,19.3334904 L118.263333,19.3334904 Z M127.04836,19.3334904 C128.057206,19.3334904 128.911361,18.8508737 129.348528,18.0419809 L129.462864,18.0419809 L129.462864,19.2111369 L130.848345,19.2111369 L130.848345,8.91984484 L129.402333,8.91984484 L129.402333,12.9847013 L129.294723,12.9847013 C128.89791,12.169011 128.05048,11.6863943 127.04836,11.6863943 C125.19881,11.6863943 124.008372,13.1682316 124.008372,15.5065436 C124.008372,17.8516531 125.185359,19.3334904 127.04836,19.3334904 L127.04836,19.3334904 Z M127.458624,12.9982961 C128.669239,12.9982961 129.429236,13.970327 129.429236,15.5133411 C129.429236,17.0631526 128.675964,18.0215886 127.458624,18.0215886 C126.234558,18.0215886 125.501463,17.0767474 125.501463,15.5065436 C125.501463,13.9499347 126.241284,12.9982961 127.458624,12.9982961 L127.458624,12.9982961 Z M140.562855,18.0555757 C139.305161,18.0555757 138.598969,17.1243293 138.598969,15.5065436 C138.598969,13.9023528 139.305161,12.964309 140.562855,12.964309 C141.813824,12.964309 142.526741,13.9023528 142.526741,15.5065436 C142.526741,17.1175319 141.813824,18.0555757 140.562855,18.0555757 L140.562855,18.0555757 Z M140.562855,19.3538827 C142.701608,19.3538827 144.013107,17.9060325 144.013107,15.5065436 C144.013107,13.1206497 142.694882,11.666002 140.562855,11.666002 C138.424103,11.666002 137.105878,13.1206497 137.105878,15.5065436 C137.105878,17.9060325 138.417377,19.3538827 140.562855,19.3538827 L140.562855,19.3538827 Z M146.092674,19.2111369 L147.538686,19.2111369 L147.538686,14.8811811 C147.538686,13.7256199 148.251603,13.0050935 149.415139,13.0050935 C150.491241,13.0050935 151.01584,13.596469 151.01584,14.7860173 L151.01584,19.2111369 L152.461852,19.2111369 L152.461852,14.4189566 C152.461852,12.6584252 151.54044,11.666002 149.90611,11.666002 C148.803106,11.666002 147.94895,12.1622136 147.592491,12.9847013 L147.484881,12.9847013 L147.484881,11.8087478 L146.092674,11.8087478 L146.092674,19.2111369 Z M159.459205,10.0142293 L159.459205,11.8427349 L158.255316,11.8427349 L158.255316,13.0730677 L159.459205,13.0730677 L159.459205,17.2534803 C159.459205,18.6809382 160.09814,19.2519214 161.705568,19.2519214 C161.988045,19.2519214 162.250344,19.2179343 162.479016,19.1771498 L162.479016,17.9604118 C162.277247,17.9808041 162.162911,17.9943989 161.940965,17.9943989 C161.221322,17.9943989 160.905217,17.654528 160.905217,16.8796222 L160.905217,13.0730677 L162.546272,13.0730677 L162.546272,11.8427349 L160.905217,11.8427349 L160.905217,10.0142293 L159.459205,10.0142293 Z M164.605662,19.2111369 L166.051674,19.2111369 L166.051674,14.8879785 C166.051674,13.7664044 166.784769,13.011891 167.968481,13.011891 C169.058034,13.011891 169.602811,13.6100638 169.602811,14.7928147 L169.602811,19.2111369 L171.048823,19.2111369 L171.048823,14.4325515 C171.048823,12.67202 170.107234,11.6727994 168.459452,11.6727994 C167.356448,11.6727994 166.509018,12.169011 166.152559,12.9982961 L166.038223,12.9982961 L166.038223,8.91984484 L164.605662,8.91984484 L164.605662,19.2111369 Z M176.437403,12.9099297 C177.506779,12.9099297 178.206246,13.6644432 178.239874,14.8268018 L174.540774,14.8268018 C174.621481,13.6712406 175.368027,12.9099297 176.437403,12.9099297 L176.437403,12.9099297 Z M178.233148,17.2126958 C177.964123,17.7904764 177.365541,18.109955 176.491208,18.109955 C175.334399,18.109955 174.587853,17.2874674 174.540774,15.9891604 L174.540774,15.9075914 L179.712788,15.9075914 L179.712788,15.3977849 C179.712788,13.0730677 178.481997,11.666002 176.444129,11.666002 C174.379358,11.666002 173.067859,13.1682316 173.067859,15.5337333 C173.067859,17.8992351 174.352456,19.3538827 176.450854,19.3538827 C178.125538,19.3538827 179.295799,18.5381924 179.625355,17.2126958 L178.233148,17.2126958 Z" id="Download-on-the" fill="#FFFFFF"></path>
                    <g id="logo_apple" transform="translate(17.906336, 9.327146)" fill="#FFFFFF">
                        <path d="M26.6309596,20.9588255 C26.586633,15.9798874 30.6646745,13.5576178 30.8511517,13.4448463 C28.5415862,10.0416194 24.9618361,9.5766301 23.7038795,9.53955455 C20.6973174,9.21977788 17.7809369,11.3578016 16.2493786,11.3578016 C14.6872502,11.3578016 12.3287727,9.57045084 9.78687497,9.62297454 C6.51588213,9.67395343 3.45582248,11.587979 1.77752803,14.5602026 C-1.68605597,20.6205111 0.897111267,29.5263684 4.21548764,34.4249761 C5.87544008,36.8256183 7.81510826,39.5027823 10.353949,39.4085486 C12.8377636,39.3065908 13.7655639,37.8081205 16.762955,37.8081205 C19.7328331,37.8081205 20.6040788,39.4085486 23.1933601,39.346756 C25.8590664,39.3065908 27.5373608,36.9383897 29.1392302,34.5161201 C31.0574994,31.7694394 31.8278641,29.0582895 31.8584341,28.9192561 C31.797294,28.8991736 26.6829286,26.9264451 26.6309596,20.9588255" id="Fill-2"></path>
                        <path d="M21.7397553,6.31707088 C23.0756655,4.62858831 23.9897093,2.33144871 23.735978,0.000323187388 C21.8024239,0.0868328159 19.3843348,1.35203613 17.9918701,3.00344315 C16.759898,4.45865869 15.6593771,6.84385273 15.9436783,9.08692381 C18.1156787,9.25067418 20.3457621,7.9792916 21.7397553,6.31707088" id="Fill-3"></path>
                    </g>
                </g>
            </g>
        </g>
    </g>
</svg>