<?xml version="1.0" encoding="UTF-8"?>
<svg width="24px" height="24px" viewBox="0 0 24 24" version="1.1" xmlns="http://www.w3.org/2000/svg" xmlns:xlink="http://www.w3.org/1999/xlink">
    <!-- Generator: sketchtool 55.2 (78181) - https://sketchapp.com -->
    <title>73CE79DC-ACC0-4C98-B6D9-57E1305C81D9_svg</title>
    <desc>Created with sketchtool.</desc>
    <g id="Internet-banking" stroke="none" stroke-width="1" fill="none" fill-rule="evenodd">
        <g id="IB-iconset-ONBOARDING2" transform="translate(-193.000000, -348.000000)">
            <g id="other_previous" transform="translate(193.000000, 348.000000)">
                <g>
                    <circle id="Oval-2" fill="#F3F3F3" transform="translate(12.000000, 12.000000) scale(1, -1) rotate(-270.000000) translate(-12.000000, -12.000000) " cx="12" cy="12" r="12"></circle>
                    <path d="M9.82047545,7.14313992 C9.63606996,6.95228669 9.32915734,6.95228669 9.13830411,7.14313992 C8.95389863,7.3275454 8.95389863,7.63445803 9.13830411,7.81843366 L12.5973039,11.2774335 L13.0882238,11.7432917 L12.5973039,12.2398668 L9.13830411,15.6924189 C8.95389863,15.8832721 8.95389863,16.1906146 9.13830411,16.3745902 C9.32915734,16.5654434 9.63649981,16.5654434 9.82047545,16.3745902 L14.0983388,12.0967269 C14.289192,11.9123214 14.289192,11.6054088 14.0983388,11.4214331 L9.82047545,7.14313992 Z" id="Shape" fill="#444444" fill-rule="nonzero" transform="translate(11.620739, 11.758865) rotate(-180.000000) translate(-11.620739, -11.758865) "></path>
                </g>
            </g>
        </g>
    </g>
</svg>