<?xml version="1.0" encoding="UTF-8"?>
<svg width="24px" height="24px" viewBox="0 0 24 24" version="1.1" xmlns="http://www.w3.org/2000/svg" xmlns:xlink="http://www.w3.org/1999/xlink">
    <!-- Generator: sketchtool 56 (101010) - https://sketch.com -->
    <title>68272100-8B42-4600-86F8-8BBE9F145BE8_svg</title>
    <desc>Created with sketchtool.</desc>
    <g id="Internet-banking" stroke="none" stroke-width="1" fill="none" fill-rule="evenodd">
        <g id="IB-iconset-ONBOARDING2" transform="translate(-373.000000, -348.000000)">
            <g id="other_check_on" transform="translate(373.000000, 348.000000)">
                <g>
                    <rect id="Rectangle-3" stroke="#8C8C8C" fill="#FFFFFF" x="0.5" y="0.5" width="23" height="23" rx="2"></rect>
                    <path d="M19.6820858,6.30607851 C19.2715235,5.89784457 18.55595,5.89784457 18.1446116,6.30685462 L9.82005403,14.6321883 L5.85490724,10.6724743 C5.44589718,10.2634642 4.72721918,10.2634642 4.31820913,10.6724743 C4.11253993,10.8781435 3.99922785,11.1505581 4.00000396,11.4408233 C4.00078007,11.7287602 4.11409215,12.0003987 4.31898524,12.2045157 L9.05636164,16.9318027 C9.26125472,17.1374719 9.53289328,17.2500078 9.82005403,17.2500078 C10.1103192,17.2500078 10.38351,17.1374719 10.587627,16.9318027 L19.6828619,7.84277663 C20.105842,7.41979659 20.105842,6.72983466 19.6820858,6.30607851" id="Fill-11" fill="#8DC63F"></path>
                </g>
            </g>
        </g>
    </g>
</svg>