<?xml version="1.0" encoding="UTF-8"?>
<svg width="60px" height="60px" viewBox="0 0 60 60" version="1.1" xmlns="http://www.w3.org/2000/svg" xmlns:xlink="http://www.w3.org/1999/xlink">
    <!-- Generator: sketchtool 54.1 (76490) - https://sketchapp.com -->
    <title>F6E5F6C6-5BCF-4A4F-999F-1700D4B5CC6C_svg</title>
    <desc>Created with sketchtool.</desc>
    <g id="Internet-banking" stroke="none" stroke-width="1" fill="none" fill-rule="evenodd">
        <g id="IB-iconset-WARNINGS" transform="translate(-967.000000, -148.000000)">
            <g id="warning_error" transform="translate(967.000000, 148.000000)">
                <g>
                    <path d="M23.5991042,36.4207823 L28.3544496,31.6653639 L23.5991042,26.9108658 C23.2392552,26.5510112 23.2392552,25.9693537 23.5991042,25.6094991 C23.9589533,25.2496445 24.5406019,25.2496445 24.9004509,25.6094991 L29.6557963,30.3639972 L34.4102214,25.6094991 C34.7700704,25.2496445 35.3526393,25.2496445 35.7115681,25.6094991 C36.0714171,25.9693537 36.0714171,26.5510112 35.7115681,26.9108658 L30.957143,31.6653639 L35.7115681,36.4207823 C36.0714171,36.7806369 36.0714171,37.3622944 35.7115681,37.722149 C35.5321037,37.9016161 35.2964992,37.9918098 35.0608947,37.9918098 C34.8252902,37.9918098 34.5896857,37.9016161 34.4102214,37.722149 L29.6557963,32.9676509 L24.9004509,37.722149 C24.7209866,37.9016161 24.4853821,37.9918098 24.2497776,37.9918098 C24.0141731,37.9918098 23.7785686,37.9016161 23.5991042,37.722149 C23.2392552,37.3622944 23.2392552,36.7806369 23.5991042,36.4207823" id="Path" fill="#C13333"></path>
                    <path d="M29.6557964,54.0959941 C16.3487437,54.0959941 5.52198064,43.2690644 5.52198064,29.9618069 C5.52198064,16.6545494 16.3487437,5.82853997 29.6557964,5.82853997 C42.9628491,5.82853997 53.7896122,16.6545494 53.7896122,29.9618069 C53.7896122,43.2690644 42.9628491,54.0959941 29.6557964,54.0959941 Z M29.6557961,7.66922843 C17.3638677,7.66922843 7.36264086,17.6696887 7.36264086,29.9618062 C7.36264086,42.2548439 17.3638677,52.2553042 29.6557961,52.2553042 C41.9477244,52.2553042 51.9489512,42.2548439 51.9489512,29.9618062 C51.9489512,17.6696887 41.9477244,7.66922843 29.6557961,7.66922843 Z" id="Combined-Shape" fill="#8C8C8C"></path>
                    <path d="M30.0000011,1.84068847 C45.5268906,1.84068847 58.1593419,14.472413 58.1593419,29.9995405 C58.1593419,45.5275884 45.5268906,58.159313 30.0000011,58.159313 C14.4731115,58.159313 1.84066021,45.5275884 1.84066021,29.9995405 C1.84066021,14.472413 14.4731115,1.84068847 30.0000011,1.84068847 L30.0000011,1.84068847 Z M30,60 C46.5420131,60 60,46.5418066 60,29.9995398 C60,13.4581934 46.5420131,0 30,0 C13.4579869,0 0,13.4581934 0,29.9995398 C0,46.5418066 13.4579869,60 30,60 L30,60 Z" id="ic_warning-error" fill="#C13333"></path>
                </g>
            </g>
        </g>
    </g>
</svg>