<?xml version="1.0" encoding="UTF-8"?>
<svg width="60px" height="60px" viewBox="0 0 60 60" version="1.1" xmlns="http://www.w3.org/2000/svg" xmlns:xlink="http://www.w3.org/1999/xlink">
    <!-- Generator: sketchtool 54.1 (76490) - https://sketchapp.com -->
    <title>9A1165F6-56DF-4A39-8F1D-48FF2A34B593_svg</title>
    <desc>Created with sketchtool.</desc>
    <g id="Internet-banking" stroke="none" stroke-width="1" fill="none" fill-rule="evenodd">
        <g id="IB-iconset-WARNINGS" transform="translate(-785.000000, -148.000000)" fill="#EA9949">
            <g id="warning_alert" transform="translate(785.000000, 148.000000)">
                <g>
                    <path d="M30.0000011,1.84068847 C45.5268906,1.84068847 58.1593419,14.472413 58.1593419,29.9995405 C58.1593419,45.5275884 45.5268906,58.159313 30.0000011,58.159313 C14.4731115,58.159313 1.84066021,45.5275884 1.84066021,29.9995405 C1.84066021,14.472413 14.4731115,1.84068847 30.0000011,1.84068847 L30.0000011,1.84068847 Z M30,60 C46.5420131,60 60,46.5418066 60,29.9995398 C60,13.4581934 46.5420131,0 30,0 C13.4579869,0 0,13.4581934 0,29.9995398 C0,46.5418066 13.4579869,60 30,60 L30,60 Z" id="ic_warning-warning"></path>
                    <rect id="Rectangle-15" x="29.25" y="12" width="1.5" height="24" rx="0.75"></rect>
                    <rect id="Rectangle-15" x="29.25" y="40.5" width="1.5" height="4.5" rx="0.75"></rect>
                </g>
            </g>
        </g>
    </g>
</svg>