<?xml version="1.0" encoding="UTF-8"?>
<svg width="200px" height="60px" viewBox="0 0 200 60" version="1.1" xmlns="http://www.w3.org/2000/svg" xmlns:xlink="http://www.w3.org/1999/xlink">
    <!-- Generator: sketchtool 55.2 (78181) - https://sketchapp.com -->
    <title>9CDF0DF1-E91B-4E75-ABD5-39FEE5F28010_svg</title>
    <desc>Created with sketchtool.</desc>
    <defs>
        <linearGradient x1="50%" y1="0%" x2="50%" y2="38.9125982%" id="linearGradient-1">
            <stop stop-color="#FBDA09" offset="0%"></stop>
            <stop stop-color="#FFBC00" offset="100%"></stop>
        </linearGradient>
        <path d="M6.244411,5.71672402 C9.74694197,-0.270163613 15.4212403,-0.277870287 18.9283818,5.71672402 L27.844348,20.9563715 C31.3469806,26.9432591 28.5609909,31.7965904 21.6332781,31.7965904 L3.5399578,31.7965904 C-3.39295403,31.7965904 -6.17833583,26.9509658 -2.6712962,20.9563715 L6.244411,5.71672402 Z" id="path-2"></path>
        <linearGradient x1="37.8291457%" y1="58.4755255%" x2="54.6995285%" y2="39.0830098%" id="linearGradient-4">
            <stop stop-color="#01E2FF" offset="0%"></stop>
            <stop stop-color="#01C4FF" offset="100%"></stop>
        </linearGradient>
        <linearGradient x1="20.2810876%" y1="31.9801277%" x2="83.820166%" y2="70.2640309%" id="linearGradient-5">
            <stop stop-color="#28D781" offset="0%"></stop>
            <stop stop-color="#02F076" offset="100%"></stop>
        </linearGradient>
        <linearGradient x1="74.4881466%" y1="34.7870372%" x2="10.1079427%" y2="69.2364192%" id="linearGradient-6">
            <stop stop-color="#F2414E" offset="0%"></stop>
            <stop stop-color="#E02554" offset="100%"></stop>
        </linearGradient>
    </defs>
    <g id="Internet-banking" stroke="none" stroke-width="1" fill="none" fill-rule="evenodd">
        <g id="IB-iconset-ONBOARDING2" transform="translate(-1285.000000, -148.000000)">
            <g id="other_store_google" transform="translate(1285.000000, 148.000000)">
                <g>
                    <rect id="background" fill="#000000" x="0" y="0" width="200" height="60" rx="8"></rect>
                    <g id="get-it-on" transform="translate(61.396100, 10.090909)" fill="#FFFFFF">
                        <path d="M44.700669,9.81818182 C42.0237114,9.81818182 39.8536085,7.62030695 39.8536085,4.90909091 C39.8536085,2.19787486 42.0237114,0 44.700669,0 C47.3776265,0 49.5477294,2.19787486 49.5477294,4.90909091 C49.5477294,7.62030695 47.3776265,9.81818182 44.700669,9.81818182 Z M44.700669,8.31818182 C46.5596673,8.31818182 48.0666832,6.79187983 48.0666832,4.90909091 C48.0666832,3.02630199 46.5596673,1.5 44.700669,1.5 C42.8416706,1.5 41.3346547,3.02630199 41.3346547,4.90909091 C41.3346547,6.79187983 42.8416706,8.31818182 44.700669,8.31818182 Z" id="o"></path>
                        <path d="M11.8483701,5.45454545 L11.8483701,8.45454545 L15.7529466,8.45454545 L15.7529466,9.54545455 L11.8483701,9.54545455 L10.3673238,9.54545455 L10.3673238,0.545454545 L10.3673238,0.409090909 L15.7529466,0.409090909 L15.7529466,1.5 L11.8483701,1.5 L11.8483701,4.36363636 L15.3490249,4.36363636 L15.3490249,5.45454545 L11.8483701,5.45454545 Z" id="e"></path>
                        <path d="M21.0039288,1.5 L21.0039288,9.54545455 L19.5228825,9.54545455 L19.5228825,1.5 L17.2339929,1.5 L17.2339929,0.409090909 L23.2928185,0.409090909 L23.2928185,1.5 L21.0039288,1.5 Z" id="t"></path>
                        <path d="M34.1987046,1.5 L34.1987046,9.54545455 L32.7176583,9.54545455 L32.7176583,1.5 L30.4287686,1.5 L30.4287686,0.409090909 L36.4875942,0.409090909 L36.4875942,1.5 L34.1987046,1.5 Z" id="t"></path>
                        <rect id="i" x="27.6013167" y="0.409090909" width="1.48104626" height="9.13636364"></rect>
                        <path d="M52.2405408,0.409090909 L52.509822,0.409090909 L56.549039,7.09423503 L56.549039,0.409090909 L58.0300853,0.409090909 L58.0300853,9.54545455 L56.549039,9.54545455 L52.2405408,2.41463415 L52.2405408,9.54545455 L50.7594946,9.54545455 L50.7594946,0.409090909 L52.2405408,0.409090909 Z" id="n"></path>
                        <g id="g" transform="translate(0.000000, 0.136364)">
                            <polygon id="Rectangle-1" points="4.81787873 4.38683336 8.87292667 4.38683336 8.83277768 5.68663583 4.81787873 5.68663583"></polygon>
                            <path d="M8.07495814,1.32852664 L7.14704962,2.26729388 C6.56828522,1.66862024 5.74626718,1.3404213 4.79780424,1.3404213 C2.90195506,1.3404213 1.36506564,2.89529596 1.36506564,4.81333104 C1.36506564,6.73136613 2.90195506,8.28624079 4.79780424,8.28624079 C6.69365342,8.28624079 8.03967831,7.1773944 8.03685533,4.81333104 C8.0400618,4.66723347 8.03669898,4.52502013 8.02705489,4.38683336 L9.21156049,4.38683336 C9.21169488,4.40290547 9.21176218,4.41901027 9.21176218,4.43514755 C9.65732187,7.74510598 7.42913137,9.65101752 4.75765525,9.62666209 C2.13007734,9.62285039 0,7.47166038 0,4.81333104 C0,2.15500171 2.13007481,0 4.75765525,0 C6.13110426,0 7.28568903,0.485462891 8.07495814,1.32852664 Z" id="Oval-1"></path>
                        </g>
                    </g>
                    <g id="googleplay" transform="translate(60.722897, 26.181818)" fill="#FFFFFF">
                        <g id="big-P" transform="translate(84.015715, 0.681818)">
                            <path d="M0.673202846,4.79269333e-07 L8.30636631,0 C8.30636631,0 12.7005681,0.757191051 12.7005677,5.86769982 C12.7005674,10.9782086 8.30636631,11.7353996 8.30636631,11.7353996 L0.673202846,11.7354001 L0.673202846,4.79269333e-07 Z M2.15424911,2.83866992 L2.15424911,9.13636364 L7.3360134,9.13636364 C7.3360134,9.13636364 9.69412098,9.13636364 9.69412098,5.98751678 C9.69412098,2.83866992 7.3360134,2.83866992 7.3360134,2.83866992 L2.15424911,2.83866992 Z" id="Combined-Shape"></path>
                            <rect id="Rectangle-6" x="0" y="0" width="2.69281138" height="19.0909091"></rect>
                        </g>
                        <rect id="y" x="98.2876155" y="0.681818182" width="2.69281138" height="19.0909091"></rect>
                        <path d="M110.961066,18.4077454 C110.21937,19.0275299 109.033586,19.6108501 107.160757,19.7293146 C102.870206,20.0007105 102.867971,16.0353779 102.867971,15.7679776 C102.867971,15.5005773 102.656346,12.2668013 106.069366,11.7527743 C108.48612,11.3887926 110.178798,11.9952561 110.961066,12.380325 L110.961066,11.8194006 C110.769232,11.076515 110.173925,9.71151456 108.38922,9.71151456 C105.937301,9.71151456 105.395834,11.0541104 105.395834,11.0541104 L103.152833,9.71151456 C103.152833,9.71151456 104.407976,7.09090909 108.174111,7.09090909 C112.856934,7.09090909 113.654156,10.3621882 113.654156,11.4639504 C113.654156,11.4693133 113.654063,11.4746414 113.653877,11.4799352 L113.653877,19.7666016 L110.961066,19.7666016 L110.961066,18.4077454 Z M110.768703,14.3185813 C110.768703,14.3185813 105.580965,12.9024104 105.400634,15.8540705 C105.220302,18.8057305 110.377535,17.3884278 110.838324,15.2960316 C110.838324,14.6306596 110.768703,14.3185813 110.768703,14.3185813 Z" id="a"></path>
                        <path d="M118.706754,19.048421 L113.905921,7.5 L116.598733,7.5 L120.05316,15.8096369 L123.480128,7.56605114 L126.17294,7.56605114 L118.887623,25.0909091 L116.194811,25.0909091 L118.706754,19.048421 Z" id="y"></path>
                        <path d="M77.9872304,11.9625895 L69.4706805,15.5273385 C69.4706805,15.5273385 70.0207107,17.4989956 72.5812726,17.5122105 C74.586288,17.5225582 75.7181306,15.7123066 75.7181306,15.7123066 L77.8788936,17.1943664 C77.8788936,17.1943664 76.1352763,20.0504157 72.5642529,20.0504157 C68.1759575,20.0504157 66.24316,16.1641017 66.24316,13.6402011 C66.24316,11.2084881 67.7773042,7.09090909 72.291938,7.09090909 C76.8065719,7.09090909 77.9872304,11.9625895 77.9872304,11.9625895 Z M74.7468633,10.9527481 C74.7468633,10.9527481 73.6753631,9.30162382 72.0320607,9.60612763 C68.5559547,10.2502498 68.9933931,13.3311217 68.9933931,13.3311217 L74.7468633,10.9527481 Z" id="e"></path>
                        <rect id="i" x="62.2039429" y="0.681818182" width="2.84883264" height="19.0508021"></rect>
                        <path d="M57.6449992,7.50494493 L60.2784675,7.5279864 L60.2784675,19.5484585 C60.2784675,22.6196562 58.4730721,25.8616 54.2227343,25.8616 C49.9723964,25.8616 48.5996937,22.0475533 48.5996937,22.0475533 L51.0182885,21.0173713 C51.0182885,21.0173713 51.7559444,23.3679656 54.3484181,23.3679625 C57.300678,23.3679589 57.6453265,20.6476832 57.6453265,19.7165249 L57.6453265,18.4120253 C57.6453265,18.4120253 56.6238184,20.0312572 54.0865768,20.0312608 C51.3356892,20.0312646 48.0666832,17.6442052 48.0666832,13.5747422 C48.0666832,9.50527915 51.1448724,7.17759195 54.1184069,7.09292172 C56.5001806,7.02510165 57.6449992,8.69382406 57.6449992,8.69382406 L57.6449992,7.50494493 Z M54.311433,17.5885577 C56.231866,17.5885577 57.7886846,15.8068744 57.7886846,13.6090568 C57.7886846,11.4112391 56.231866,9.62955587 54.311433,9.62955587 C52.391,9.62955587 50.8341814,11.4112391 50.8341814,13.6090568 C50.8341814,15.8068744 52.391,17.5885577 54.311433,17.5885577 Z" id="g"></path>
                        <path d="M40.4739374,20.0454545 C36.9338621,20.0454545 34.064064,17.1454808 34.064064,13.5681818 C34.064064,9.99088287 36.9338621,7.09090909 40.4739374,7.09090909 C44.0140128,7.09090909 46.8838109,9.99088287 46.8838109,13.5681818 C46.8838109,17.1454808 44.0140128,20.0454545 40.4739374,20.0454545 Z M40.4320428,17.5053476 C42.4218891,17.5053476 44.0349782,15.7426184 44.0349782,13.5681818 C44.0349782,11.3937452 42.4218891,9.63101604 40.4320428,9.63101604 C38.4421966,9.63101604 36.8291074,11.3937452 36.8291074,13.5681818 C36.8291074,15.7426184 38.4421966,17.5053476 40.4320428,17.5053476 Z" id="o"></path>
                        <path d="M26.6059588,20.0454545 C23.0658835,20.0454545 20.1960854,17.1454808 20.1960854,13.5681818 C20.1960854,9.99088287 23.0658835,7.09090909 26.6059588,7.09090909 C30.1460342,7.09090909 33.0158323,9.99088287 33.0158323,13.5681818 C33.0158323,17.1454808 30.1460342,20.0454545 26.6059588,20.0454545 Z M26.5640642,17.5053476 C28.5539105,17.5053476 30.1669996,15.7426184 30.1669996,13.5681818 C30.1669996,11.3937452 28.5539105,9.63101604 26.5640642,9.63101604 C24.5742179,9.63101604 22.9611288,11.3937452 22.9611288,13.5681818 C22.9611288,15.7426184 24.5742179,17.5053476 26.5640642,17.5053476 Z" id="o"></path>
                        <g id="big-g">
                            <polygon id="Rectangle-1" points="10.0547034 9.14438503 18.5174122 9.14438503 18.433623 11.8538324 10.0547034 11.8538324"></polygon>
                            <path d="M16.8520865,2.76932315 L14.9155818,4.72619007 C13.7077257,3.47825063 11.9922098,2.79411765 10.0128088,2.79411765 C6.05625404,2.79411765 2.84883264,6.03526481 2.84883264,10.0334225 C2.84883264,14.0315801 6.05625404,17.2727273 10.0128088,17.2727273 C13.9693637,17.2727273 16.7784591,14.9613292 16.7725676,10.0334225 C16.7792594,9.72888105 16.7722413,9.43243634 16.7521146,9.14438503 L19.2241262,9.14438503 C19.2244067,9.17788746 19.2245472,9.21145802 19.2245472,9.2450963 C20.1544109,16.144728 15.5042742,20.117614 9.92901965,20.0668449 C4.4453788,20.0588994 0,15.5747287 0,10.0334225 C0,4.49211625 4.44537352,0 9.92901965,0 C12.795348,0 15.2049162,1.01195081 16.8520865,2.76932315 Z" id="Oval-1"></path>
                        </g>
                    </g>
                    <g id="logo_play" transform="translate(14.675822, 10.636364)">
                        <mask id="mask-3" fill="white">
                            <use xlink:href="#path-2"></use>
                        </mask>
                        <use id="yellow" fill="url(#linearGradient-1)" transform="translate(12.585659, 19.237630) rotate(-270.000000) translate(-12.585659, -19.237630) " xlink:href="#path-2"></use>
                        <polygon id="blue" fill="url(#linearGradient-4)" mask="url(#mask-3)" points="5.55111512e-17 -0.0134469703 18.8209803 18.9322828 -0.243101028 38.6268407"></polygon>
                        <polygon id="green" fill="url(#linearGradient-5)" mask="url(#mask-3)" points="-3.87029303 -3.91369851 18.8187466 18.9378244 25.5644625 12.4201675"></polygon>
                        <polygon id="red" fill="url(#linearGradient-6)" mask="url(#mask-3)" points="18.8218373 18.9334647 29.1488521 29.4758232 -1.70212275 40.0181818"></polygon>
                    </g>
                </g>
            </g>
        </g>
    </g>
</svg>