<?xml version="1.0" encoding="UTF-8"?>
<svg width="200px" height="44px" viewBox="0 0 200 44" version="1.1" xmlns="http://www.w3.org/2000/svg" xmlns:xlink="http://www.w3.org/1999/xlink">
    <!-- Generator: sketchtool 55.2 (78181) - https://sketchapp.com -->
    <title>A804017E-2517-49F9-A05F-0584DA917225_svg</title>
    <desc>Created with sketchtool.</desc>
    <g id="Internet-banking" stroke="none" stroke-width="1" fill="none" fill-rule="evenodd">
        <g id="IB-iconset-ONBOARDING2" transform="translate(-845.000000, -159.000000)" fill="#FFFFFF">
            <g id="other_onboarding_logo" transform="translate(845.000000, 159.000000)">
                <g id="ebankit-logo">
                    <g>
                        <path d="M24.3225453,26.1585001 C24.2043635,24.8157001 23.9170908,23.5251 23.4443635,22.3083 C22.9625453,21.0933 22.3370908,20.0294999 21.5243635,19.0952999 C20.7243635,18.1718999 19.738909,17.4338999 18.5934544,16.8956999 C17.4352726,16.3556999 16.1134544,16.0856998 14.6152726,16.0856998 C13.3207271,16.0856998 12.1079999,16.3412999 10.9843635,16.8470999 C9.83709078,17.3438999 8.83709078,18.0404999 7.98072714,18.9548999 C7.11345441,19.8602999 6.39709078,20.9277 5.82799987,22.1607 C5.25890896,23.4009 4.89527259,24.7311001 4.73890896,26.1585001 L24.3225453,26.1585001 Z M4.73890913,29.8232998 C4.89527276,31.4216998 5.29527277,32.8328998 5.92072732,34.0730998 C6.54436369,35.3168998 7.35527278,36.3608998 8.33163643,37.2194998 C9.30981825,38.0798998 10.4061819,38.7242998 11.6189092,39.1688998 C12.8316365,39.6188998 14.1080001,39.8330998 15.4443638,39.8330998 C17.5625456,39.8330998 19.3770911,39.4478998 20.886182,38.6756998 C22.3843638,37.9034998 23.7752729,36.8684998 25.0280002,35.5850998 L27.8498184,38.0942998 C26.3170911,39.8042998 24.5770911,41.1704998 22.6189093,42.1964997 C20.6607274,43.2206997 18.2280001,43.7462997 15.3280001,43.7462997 C13.2498183,43.7462997 11.2880001,43.3664997 9.44436371,42.6032997 C7.60436369,41.8472997 5.99163641,40.7744998 4.61890912,39.3956998 C3.2498182,38.0240998 2.16436365,36.3608998 1.35709092,34.4258998 C0.560727273,32.4818998 0.157090906,30.3506998 0.157090906,28.0232998 C0.157090906,25.8434998 0.517090909,23.8004998 1.24436364,21.8816998 C1.96254547,19.9592998 2.97345457,18.2924998 4.27163639,16.8722998 C5.55890913,15.4520998 7.09527278,14.3360998 8.88072734,13.5206998 C10.6698183,12.7052998 12.6243637,12.3002998 14.737091,12.3002998 C16.9752729,12.3002998 18.9734547,12.7178998 20.7334547,13.5548998 C22.5043638,14.3900998 23.986182,15.5276998 25.2025457,16.9604998 C26.4243638,18.3968998 27.3425457,20.0798998 27.9716366,22.0238998 C28.5970911,23.9678998 28.9098184,26.0396998 28.9098184,28.2500998 L28.9098184,28.9214998 C28.9098184,29.1770998 28.8825457,29.4740998 28.8480002,29.8232998 L4.73890913,29.8232998 Z" id="Fill-9"></path>
                        <path d="M49.5010499,39.6639002 C50.9519596,39.6639002 52.335596,39.3975002 53.6483233,38.8773002 C54.9628688,38.3553002 56.0974143,37.5975002 57.0555962,36.6111002 C58.022869,35.6175002 58.7774144,34.4025002 59.3519599,32.9661002 C59.9246872,31.5297002 60.202869,29.9025002 60.202869,28.0809002 L60.202869,27.9675002 C60.202869,26.1783002 59.9246872,24.5655002 59.3519599,23.1291002 C58.7774144,21.6981001 57.9974144,20.4741001 57.0283235,19.4643001 C56.044687,18.4527001 54.9137779,17.6769001 53.6174142,17.1297001 C52.3228687,16.5951001 50.9519596,16.3197001 49.5010499,16.3197001 C48.0883231,16.3197001 46.7246867,16.5987001 45.4137775,17.1603001 C44.0955956,17.7255001 42.9228683,18.5265001 41.8883228,19.5525001 C40.8465046,20.5767001 40.0228682,21.8007001 39.4155954,23.2209002 C38.8028681,24.6321002 38.5010499,26.1981002 38.5010499,27.9027002 L38.5010499,28.0233002 C38.5010499,29.7657002 38.8028681,31.3569002 39.4155954,32.7987002 C40.0228682,34.2315002 40.8465046,35.4609002 41.8883228,36.4689002 C42.9228683,37.4679002 44.0955956,38.2617002 45.4137775,38.8161002 C46.7246867,39.3777002 48.0883231,39.6639002 49.5010499,39.6639002 M50.3246864,43.6796992 C48.9137773,43.6796992 47.6228682,43.5050992 46.4428682,43.1576992 C45.2628682,42.8048992 44.2065046,42.3386992 43.2683228,41.7626992 C42.3337773,41.1776992 41.4755955,40.5026993 40.7137773,39.7214993 C39.9519591,38.9492993 39.2737773,38.1320993 38.6792318,37.2734993 L38.6792318,43.0406992 L34.1537772,43.0406992 L34.1537772,0.546299997 L38.6792318,0.546299997 L38.6792318,18.9980997 C39.3101409,18.1016997 39.9992318,17.2484997 40.7701409,16.4402997 C41.5319591,15.6194997 42.3865046,14.9120997 43.3246864,14.3090997 C44.2646864,13.7042998 45.3192319,13.2272998 46.470141,12.8582998 C47.6355955,12.4838998 48.9137773,12.3002998 50.3246864,12.3002998 C52.1319592,12.3002998 53.8974137,12.6530998 55.6519592,13.3532998 C57.390141,14.0516997 58.9465047,15.0668997 60.3210502,16.4024997 C61.6937774,17.7416997 62.7955956,19.3760996 63.6119593,21.3002996 C64.4374138,23.2208996 64.8428684,25.4204995 64.8428684,27.9026995 L64.8428684,28.0232995 C64.8428684,30.4694994 64.4374138,32.6564994 63.6119593,34.6004994 C62.7955956,36.5372993 61.7083229,38.1788993 60.3501411,39.5180993 C58.9955956,40.8590992 57.4519592,41.8832992 55.7010501,42.6032992 C53.9610501,43.3178992 52.1628683,43.6796992 50.3246864,43.6796992" id="Fill-11"></path>
                        <polygon id="Fill-13" points="132.950872 12.9414605 137.483599 12.9414605 137.483599 29.8830611 153.885418 12.9414605 159.529055 12.9414605 146.765418 25.8654609 159.947236 43.0410615 154.529054 43.0410615 143.649054 29.006461 137.483599 35.1804612 137.483599 43.0410615 132.950872 43.0410615"></polygon>
                        <path d="M80.1739582,40.0118412 C81.5812309,40.0118412 82.8866854,39.8192412 84.1012309,39.4304412 C85.3139582,39.0506412 86.3848673,38.4980412 87.2994127,37.7888412 C88.2103218,37.0616412 88.93214,36.2174411 89.4630491,35.2328411 C89.9957764,34.2500411 90.2539582,33.1610411 90.2539582,31.9586411 L90.2539582,29.175841 C89.1139582,28.869841 87.8339582,28.578241 86.3903218,28.308241 C84.9394127,28.043641 83.2757763,27.901441 81.4066854,27.901441 C78.5885036,27.901441 76.4139582,28.455841 74.8703218,29.553841 C73.3175945,30.650041 72.5575945,32.1152411 72.5575945,33.9332411 L72.5575945,34.0484411 C72.5575945,34.9736411 72.7594127,35.8142411 73.1685036,36.5630411 C73.5830491,37.3190412 74.1375945,37.9454412 74.8412309,38.4458412 C75.5430491,38.9534412 76.35214,39.3314412 77.2703218,39.6050412 C78.1866854,39.8804412 79.15214,40.0118412 80.1739582,40.0118412 M79.2612313,43.6802405 C77.8430495,43.6802405 76.4521404,43.4876405 75.088504,43.1006405 C73.7066858,42.7118405 72.4939585,42.1196405 71.4375948,41.3240405 C70.3812312,40.5302405 69.5303221,39.5456405 68.8757766,38.3864405 C68.2339584,37.2182405 67.9157766,35.8610405 67.9157766,34.3112405 L67.9157766,34.1888405 C67.9157766,32.5580405 68.2230493,31.1360405 68.8557766,29.9066405 C69.4775948,28.6898405 70.3703221,27.6746405 71.5285039,26.8520405 C72.6866857,26.0384405 74.0575949,25.4210405 75.6412312,24.9980405 C77.2303222,24.5660405 78.9866858,24.3554405 80.9085041,24.3554405 C82.8703223,24.3554405 84.5612314,24.4670405 85.9903223,24.7028405 C87.4194133,24.9368405 88.826686,25.2464405 90.1957769,25.6316405 L90.1957769,24.7046405 C90.1957769,22.0478405 89.4157766,20.0390405 87.8412315,18.6602405 C86.2739587,17.2904405 84.0612314,16.6136405 81.2030495,16.6136405 C79.3957768,16.6136405 77.7594131,16.8044405 76.2921403,17.1986405 C74.8194131,17.5802405 73.379413,18.1022405 71.9666857,18.7592405 L70.6157766,15.0746405 C72.299413,14.2862405 74.0066858,13.6580405 75.7321403,13.1882405 C77.448504,12.7130405 79.4375949,12.4754405 81.6703223,12.4754405 C85.9812314,12.4754405 89.2612315,13.5824405 91.4830497,15.7946405 C93.6048679,17.8880405 94.6612316,20.8436405 94.6612316,24.6470405 L94.6612316,43.0412405 L90.1957769,43.0412405 L90.1957769,38.5592405 C89.1375951,39.9164405 87.7139587,41.1116405 85.9375951,42.1412405 C84.1521405,43.1690405 81.917595,43.6802405 79.2612313,43.6802405" id="Fill-15"></path>
                        <path d="M100.785599,12.9414597 L105.316508,12.9414597 L105.316508,18.1794596 C106.327417,16.5504596 107.669235,15.1644596 109.316508,14.0196596 C110.960144,12.8748597 113.096508,12.3006597 115.725598,12.3006597 C117.56378,12.3006597 119.20378,12.5976597 120.632871,13.1772596 C122.071053,13.7514596 123.28378,14.5848596 124.281962,15.6522596 C125.281962,16.7214596 126.038325,17.9868596 126.571053,19.4646596 C127.105598,20.9352596 127.371053,22.5696596 127.371053,24.3552596 L127.371053,43.0410594 L122.834689,43.0410594 L122.834689,25.5000595 C122.834689,22.7100596 122.111053,20.4996596 120.667416,18.8778596 C119.212871,17.2488596 117.131053,16.4388596 114.438326,16.4388596 C113.136508,16.4388596 111.927417,16.6584596 110.812871,17.1048596 C109.700144,17.5512596 108.72378,18.1902596 107.907417,19.0254596 C107.081962,19.8498596 106.440144,20.8542596 105.987417,22.0116596 C105.540144,23.1762596 105.316508,24.4542596 105.316508,25.8438595 L105.316508,43.0410594 L100.785599,43.0410594 L100.785599,12.9414597 Z" id="Fill-17"></path>
                        <polygon id="Fill-19" points="164.921417 43.0398005 169.450508 43.0398005 169.450508 12.9401996 164.921417 12.9401996"></polygon>
                        <polygon id="Fill-21" points="197.620693 12.9414605 197.620693 17.4270607 187.462511 17.4270607 187.462511 43.0410615 182.93342 43.0410615 182.93342 17.4270607 172.773421 17.4270607 172.773421 12.9414605"></polygon>
                    </g>
                </g>
            </g>
        </g>
    </g>
</svg>