<?xml version="1.0" encoding="UTF-8"?>
<svg width="30px" height="30px" viewBox="0 0 30 30" version="1.1" xmlns="http://www.w3.org/2000/svg" xmlns:xlink="http://www.w3.org/1999/xlink">
    <!-- Generator: sketchtool 55.2 (78181) - https://sketchapp.com -->
    <title>050717B4-B35B-428D-9EDE-AB747F69F7C1_svg</title>
    <desc>Created with sketchtool.</desc>
    <g id="Internet-banking" stroke="none" stroke-width="1" fill="none" fill-rule="evenodd">
        <g id="IB-iconset-ONBOARDING2" transform="translate(-550.000000, -178.000000)" fill="#0173A7">
            <g id="other_field_hide_pwd" transform="translate(550.000000, 178.000000)">
                <g id="action_field_hide">
                    <g transform="translate(2.000000, 4.000000)">
                        <path d="M23.7744,0.1482 C23.5664,-0.0494 23.244,-0.0494 23.036,0.1482 L2.236,20.9482 C2.028,21.1562 2.028,21.489 2.236,21.6866 C2.34,21.7906 2.4752,21.8426 2.6,21.8426 C2.7352,21.8426 2.8704,21.7906 2.9744,21.6866 L23.7744,0.8866 C23.972,0.689 23.972,0.3562 23.7744,0.1482 Z M13,13.5226 C12.8856,13.5226 12.7608,13.5018 12.6464,13.481 L11.7936,14.3338 C12.168,14.469 12.5736,14.5626 13,14.5626 C15.0176,14.5626 16.64,12.9298 16.64,10.9226 C16.64,10.4962 16.5568,10.0906 16.4216,9.7058 L15.5688,10.5586 C15.5896,10.6834 15.6,10.7978 15.6,10.9226 C15.6,12.3578 14.4352,13.5226 13,13.5226 Z M13,8.3226 C13.1248,8.3226 13.2392,8.3434 13.364,8.3538 L14.2168,7.501 C13.832,7.3658 13.4264,7.2826 13,7.2826 C10.9928,7.2826 9.36,8.9154 9.36,10.9226 C9.36,11.349 9.4536,11.7546 9.5888,12.129 L10.4416,11.2762 C10.4208,11.1618 10.4,11.0474 10.4,10.9226 C10.4,9.4874 11.5752,8.3226 13,8.3226 Z M20.592,5.5354 L19.8328,6.305 C22.516,7.9482 24.4504,10.0802 24.908,10.9226 C24.1176,12.3786 18.9488,17.6826 13,17.6826 C11.648,17.6826 10.3584,17.4018 9.152,16.9858 L8.3512,17.7866 C9.7968,18.3482 11.3568,18.7226 13,18.7226 C20.1864,18.7226 26,11.9002 26,10.9226 C26,10.3298 23.868,7.605 20.592,5.5354 Z M0,10.9226 C0,10.0074 5.824,3.1226 13,3.1226 C14.6536,3.1226 16.2136,3.4866 17.6696,4.0482 L16.848,4.8698 C15.6312,4.433 14.3416,4.1626 13,4.1626 C6.8536,4.1626 1.924,9.5914 1.1128,10.9226 C1.5912,11.6922 3.4736,13.8658 6.1776,15.5402 L5.4288,16.289 C2.1424,14.2194 0,11.4738 0,10.9226 L0,10.9226 Z" id="Fill-539"></path>
                    </g>
                </g>
            </g>
        </g>
    </g>
</svg>