<?xml version="1.0" encoding="UTF-8"?>
<svg width="30px" height="30px" viewBox="0 0 30 30" version="1.1" xmlns="http://www.w3.org/2000/svg" xmlns:xlink="http://www.w3.org/1999/xlink">
    <!-- Generator: sketchtool 55.2 (78181) - https://sketchapp.com -->
    <title>0DED7BE8-B00E-486D-9628-D47DB7B7C2B0_svg</title>
    <desc>Created with sketchtool.</desc>
    <g id="Internet-banking" stroke="none" stroke-width="1" fill="none" fill-rule="evenodd">
        <g id="IB-iconset-ONBOARDING2" transform="translate(-190.000000, -178.000000)">
            <g id="other_field_validated" transform="translate(190.000000, 178.000000)">
                <g transform="translate(7.000000, 7.000000)">
                    <path d="M0,8 C0,10.1368 0.832238925,12.1456 2.34338855,13.6565333 C3.85427152,15.1677333 5.86300457,16 8,16 C10.1367288,16 12.1457285,15.1677333 13.6566114,13.6565333 C15.1677611,12.1456 16,10.1368 16,8 C16,5.8632 15.1677611,3.8544 13.6566114,2.34346667 C12.1457285,0.832266667 10.1367288,0 8,0 C5.86300457,0 3.85427152,0.832266667 2.34338855,2.34346667 C0.832238925,3.8544 0,5.8632 0,8 L0,8 Z" id="icon_warning-success" fill="#8DC63F"></path>
                    <path d="M4.59235165,8.66672782 C4.45324611,8.53964638 4.44173859,8.32198928 4.56662897,8.18044328 C4.69151935,8.03924168 4.9057622,8.02753228 5.04452929,8.15426933 L7.15074295,10.078055 L10.9861299,5.24792712 C11.1032358,5.10052643 11.3161248,5.07641884 11.4619995,5.19695679 C11.6071973,5.31646156 11.6298738,5.53342987 11.512091,5.68117496 L7.44824605,10.7995608 C7.44723068,10.800594 7.44587686,10.800594 7.44486149,10.8019715 C7.44384612,10.8033491 7.44350767,10.8054155 7.44215384,10.806793 C7.42963096,10.8209132 7.4130466,10.8271123 7.39883143,10.8384773 C7.33655547,10.8922028 7.26311045,10.927331 7.18458858,10.927331 C7.10978974,10.927331 7.03499089,10.9021902 6.97203802,10.8505311 C6.95849976,10.8391661 6.95105372,10.8236684 6.93988467,10.8105814 L4.59235165,8.66672782 Z" id="Path" stroke="#FFFFFF" fill="#FFFFFF"></path>
                </g>
            </g>
        </g>
    </g>
</svg>