<?xml version="1.0" encoding="UTF-8"?>
<svg width="60px" height="60px" viewBox="0 0 60 60" version="1.1" xmlns="http://www.w3.org/2000/svg" xmlns:xlink="http://www.w3.org/1999/xlink">
    <!-- Generator: sketchtool 54.1 (76490) - https://sketchapp.com -->
    <title>F1178984-F7EA-4CF9-8B04-6976E38C5E23_svg</title>
    <desc>Created with sketchtool.</desc>
    <g id="Internet-banking" stroke="none" stroke-width="1" fill="none" fill-rule="evenodd">
        <g id="IB-iconset-WARNINGS" transform="translate(-603.000000, -148.000000)" fill="#8DC63F">
            <g id="warning_success" transform="translate(603.000000, 148.000000)">
                <g id="icon_warning-success">
                    <path d="M1.875,30 C1.875,37.5121875 4.8009376,44.574375 10.1137503,49.88625 C15.4256254,55.1990625 22.4878132,58.125 30.0009384,58.125 C37.5131262,58.125 44.5762514,55.1990625 49.8881266,49.88625 C55.2009392,44.574375 58.1268768,37.5121875 58.1268768,30 C58.1268768,22.4878125 55.2009392,15.425625 49.8881266,10.11375 C44.5762514,4.8009375 37.5131262,1.875 30.0009384,1.875 C22.4878132,1.875 15.4256254,4.8009375 10.1137503,10.11375 C4.8009376,15.425625 1.875,22.4878125 1.875,30 L1.875,30 Z M8.78812527,51.211875 C3.1209376,45.545625 0,38.0128125 0,30 C0,21.9871875 3.1209376,14.454375 8.78812527,8.788125 C14.4543754,3.1209375 21.9871882,0 30.0009384,0 C38.0137512,0 45.5475014,3.1209375 51.2137516,8.788125 C56.8809392,14.454375 60.0018768,21.9871875 60.0018768,30 C60.0018768,38.0128125 56.8809392,45.545625 51.2137516,51.211875 C45.5475014,56.8790625 38.0137512,60 30.0009384,60 C21.9871882,60 14.4543754,56.8790625 8.78812527,51.211875 L8.78812527,51.211875 Z M20.4684375,31.7503122 C20.0831249,31.4043747 20.0512499,30.8118747 20.3971875,30.4265622 C20.743125,30.0421872 21.3365625,30.0103122 21.7209375,30.3553122 L27.5550001,35.5921872 L38.1787504,22.4437496 C38.5031254,22.0424996 39.0928129,21.9768746 39.4968754,22.3049996 C39.8990629,22.6303121 39.9618754,23.2209371 39.6356254,23.6231246 L28.3790626,37.5562498 C28.3762501,37.5590623 28.3725001,37.5590623 28.3696876,37.5628123 C28.3668751,37.5665623 28.3659376,37.5721873 28.3621876,37.5759373 C28.3275001,37.6143748 28.2815626,37.6312498 28.2421876,37.6621873 C28.0696876,37.8084373 27.8662501,37.9040623 27.6487501,37.9040623 C27.4415626,37.9040623 27.2343751,37.8356248 27.0600001,37.6949998 C27.0225001,37.6640623 27.0018751,37.6218748 26.9709376,37.5862498 L20.4684375,31.7503122 Z"></path>
                </g>
            </g>
        </g>
    </g>
</svg>