<?xml version="1.0" encoding="UTF-8"?>
<svg width="24px" height="24px" viewBox="0 0 24 24" version="1.1" xmlns="http://www.w3.org/2000/svg" xmlns:xlink="http://www.w3.org/1999/xlink">
    <!-- Generator: sketchtool 58 (101010) - https://sketch.com -->
    <title>339AFAB3-31E5-4B58-9087-D926D9848707</title>
    <desc>Created with sketchtool.</desc>
    <g id="simulator" stroke="none" stroke-width="1" fill="none" fill-rule="evenodd">
        <g id="3-simulator-Accounts" transform="translate(-216.000000, -176.000000)" fill="#0173A7">
            <g id="Group-Copy" transform="translate(216.000000, 176.000000)">
                <g id="ic_back">
                    <path d="M19.2,12 C19.2,12.26496 18.98496,12.48 18.72,12.48 L6.43872,12.48 L10.41984,16.46016 C10.60704,16.64832 10.60704,16.95168 10.41984,17.13984 C10.23168,17.32704 9.92832,17.32704 9.74016,17.13984 L4.94016,12.33984 C4.84704,12.24576 4.8,12.12288 4.8,12 C4.8,11.87712 4.84704,11.75424 4.94016,11.66016 L9.74016,6.86016 C9.92832,6.67296 10.23168,6.67296 10.41984,6.86016 C10.60704,7.04832 10.60704,7.35168 10.41984,7.53984 L6.43872,11.52 L18.72,11.52 C18.98496,11.52 19.2,11.73504 19.2,12 M12,23.04 C5.91264,23.04 0.96,18.08832 0.96,12 C0.96,5.91168 5.91264,0.96 12,0.96 C18.08736,0.96 23.04,5.91168 23.04,12 C23.04,18.08832 18.08736,23.04 12,23.04 M12,0 C5.37312,0 0,5.37312 0,12 C0,18.62688 5.37312,24 12,24 C18.62688,24 24,18.62688 24,12 C24,5.37312 18.62688,0 12,0" id="Fill-1"></path>
                </g>
            </g>
        </g>
    </g>
</svg>