<?xml version="1.0" encoding="UTF-8"?>
<svg width="228px" height="50px" viewBox="0 0 228 50" version="1.1" xmlns="http://www.w3.org/2000/svg" xmlns:xlink="http://www.w3.org/1999/xlink">
    <!-- Generator: sketchtool 55.2 (78181) - https://sketchapp.com -->
    <title>EDA9BE61-C193-4FC1-83BD-93DF121B243D</title>
    <desc>Created with sketchtool.</desc>
    <g id="Accounts-list---Desktop" stroke="none" stroke-width="1" fill="none" fill-rule="evenodd">
        <g id="Products-lists" transform="translate(-119.000000, -59.000000)" fill="#FFFFFF">
            <g id="other_logo" transform="translate(119.000000, 59.000000)">
                <g id="Combined-Shape">
                    <path d="M27.59121,30.0445155 C27.4570767,28.5195171 27.1291954,27.0546389 26.5881913,25.6748086 C26.038245,24.2949784 25.324358,23.0881768 24.3958578,22.029476 C23.4822613,20.982506 22.3570324,20.1452232 21.0499784,19.5352239 C19.7280206,18.9208255 18.2182764,18.6143595 16.5073322,18.6143595 C15.0288857,18.6143595 13.6443325,18.9032293 12.3611244,19.4780364 C11.0510896,20.0411127 9.91095696,20.8329388 8.93178422,21.8696444 C7.94217889,22.897552 7.12545643,24.1072863 6.47416497,25.5091117 C5.82585425,26.9138698 5.41153154,28.425671 5.2326872,30.0445155 L27.59121,30.0445155 Z M5.2326872,34.2030698 C5.41153154,36.0169382 5.86609423,37.6167202 6.58147157,39.0258774 C7.29088744,40.436501 8.21789725,41.6227738 9.33418398,42.5949603 C10.4489803,43.5715459 11.7008907,44.3047182 13.0854439,44.8076745 C14.4714875,45.3164961 15.9290689,45.5613756 17.4537168,45.5613756 C19.8740769,45.5613756 21.9456904,45.1229386 23.6685575,44.2475308 C25.3780113,43.3706567 26.9667452,42.1990473 28.3974998,40.7415007 L31.6196786,43.5876757 C29.8699849,45.529116 27.881832,47.077576 25.6462778,48.24332 C23.4107236,49.404665 20.6341653,50.0000009 17.3225643,50.0000009 C14.9484058,50.0000009 12.7083805,49.5688956 10.6039788,48.7037522 C8.50255781,47.8459406 6.66344189,46.6303409 5.09259247,45.0672175 C3.53068527,43.5084931 2.29218824,41.6227738 1.36964954,39.4247232 C0.459033796,37.2178744 0,34.8013384 0,32.1604517 C0,29.6867282 0.409851604,27.3699036 1.2399874,25.1909154 C2.06118097,23.0089946 3.21472694,21.11741 4.69764456,19.5058972 C6.16714886,17.8943844 7.92131372,16.6289289 9.96013915,15.7021991 C12.0034357,14.7798683 14.2345188,14.3179697 16.647427,14.3179697 C19.2034106,14.3179697 21.4836759,14.7930654 23.4941843,15.7417904 C25.5166157,16.6905154 27.2096754,17.9794324 28.595719,19.6070749 C29.9921952,21.2376502 31.0399249,23.146831 31.758283,25.3522134 C32.4706796,27.5590621 32.8298586,29.9081463 32.8298586,32.4185283 L32.8298586,33.1795612 C32.8298586,33.4684311 32.7985609,33.8056904 32.7583209,34.2030698 L5.2326872,34.2030698 Z M58.8773439,45.3681104 C57.2647641,45.3681104 55.7058377,45.0425819 54.2109971,44.409121 C52.7057239,43.7771265 51.3673722,42.8782572 50.1840188,41.7418401 C48.9961943,40.5995576 48.0557712,39.2050639 47.361259,37.5788876 C46.6622757,35.942447 46.3180004,34.1373767 46.3180004,32.1607441 L46.3180004,32.0214414 C46.3180004,30.0873328 46.6622757,28.3130558 47.361259,26.7103411 C48.0557712,25.1002946 48.9961943,23.7101999 50.1840188,22.5488549 C51.3673722,21.3845773 52.7057239,20.4754436 54.2109971,19.8331846 C55.7058377,19.1953247 57.2647641,18.8800606 58.8773439,18.8800606 C60.5331444,18.8800606 62.0995227,19.1909257 63.5779692,19.7994587 C65.0564157,20.4182561 66.3500564,21.2995293 67.4708143,22.4491435 C68.5796491,23.5928923 69.4693997,24.9829871 70.1251623,26.6076969 C70.7794345,28.2368058 71.0968832,30.0653376 71.0968832,32.096225 L71.0968832,32.2267296 C71.0968832,34.2913429 70.7794345,36.1404035 70.1251623,37.7695124 C69.4693997,39.4000877 68.6064758,40.7769853 67.5036024,41.903138 C66.4081808,43.0234253 65.1145401,43.885636 63.6137381,44.4765729 C62.112936,45.0660434 60.5331444,45.3681104 58.8773439,45.3681104 Z M59.817767,49.9269747 C58.2066776,49.9269747 56.7341926,49.7275519 55.3868986,49.3345715 C54.0381142,48.9327931 52.8324053,48.404909 51.7608297,47.7509193 C50.6937252,47.0866652 49.7145524,46.319767 48.8441766,45.4340949 C47.9752912,44.5572208 47.2017895,43.6319574 46.5206906,42.6568382 L46.5206906,49.2011342 L41.3535797,49.2011342 L41.3535797,0.980392157 L46.5206906,0.980392157 L46.5206906,21.9183266 C47.2405391,20.9021498 48.0289445,19.932896 48.9082625,19.0164307 C49.7786383,18.0853019 50.7548303,17.2832114 51.8249156,16.5984284 C52.899472,15.9121792 54.1022001,15.371098 55.4181964,14.9517235 C56.7476059,14.5264835 58.2066776,14.3182626 59.817767,14.3182626 C61.8819287,14.3182626 63.8983986,14.7185747 65.9014552,15.5118671 C67.885137,16.3036932 69.6616574,17.4577064 71.2310164,18.9739067 C72.7988851,20.4930397 74.0582473,22.3464992 74.9882378,24.5298863 C75.9316417,26.7103408 76.3951466,29.2060593 76.3951466,32.0214409 L76.3951466,32.1607436 C76.3951466,34.9350676 75.9316417,37.417589 74.9882378,39.6244376 C74.0582473,41.8210218 72.8152792,43.6832794 71.2652949,45.2038788 C69.7182914,46.7244781 67.9551843,47.8872894 65.9565989,48.702577 C63.9699364,49.5149319 61.9176976,49.9269747 59.817767,49.9269747 Z M154.159794,15.0460094 L159.334357,15.0460094 L159.334357,34.2697873 L178.06383,15.0460094 L184.508187,15.0460094 L169.933864,29.7094555 L184.985105,49.2015745 L178.798582,49.2015745 L166.374862,33.2756056 L159.334357,40.2832666 L159.334357,49.2015745 L154.159794,49.2015745 L154.159794,15.0460094 Z M93.9002812,45.7640236 C92.7333219,45.7640236 91.6319389,45.6144565 90.5842091,45.3035914 C89.5364794,44.9927264 88.61096,44.5630874 87.8121219,43.9853477 C87.0073224,43.4178723 86.3739154,42.7081615 85.9014683,41.8503499 C85.4349826,40.9998701 85.202485,40.0482124 85.202485,38.9968433 L85.202485,38.8663387 C85.202485,36.8031918 86.0713704,35.1403571 87.8449101,33.8968968 C89.6065268,32.6505039 92.0894823,32.0214421 95.30719,32.0214421 C97.4413991,32.0214421 99.3416201,32.18274 100.997421,32.4833407 C102.64726,32.791273 104.109312,33.1197342 105.408914,33.4687242 L105.408914,36.6257641 C105.408914,37.9894646 105.113821,39.2255931 104.50575,40.3414813 C103.90066,41.4573696 103.074996,42.4178253 102.036208,43.2404446 C100.989969,44.0469341 99.7678658,44.6730633 98.3848029,45.1041686 C96.997269,45.5455383 95.5083899,45.7640236 93.9002812,45.7640236 Z M92.8570226,49.9269775 C91.2384813,49.9269775 89.6497475,49.7070258 88.0938018,49.2685888 C86.5155005,48.8286854 85.1309473,48.1556331 83.9252384,47.2523648 C82.7180391,46.3520292 81.7463182,45.2346745 80.9996431,43.917897 C80.2663813,42.5952541 79.9042215,41.0555922 79.9042215,39.2945122 L79.9042215,39.1552094 C79.9042215,37.3061488 80.2544584,35.6931696 80.9772876,34.2972095 C81.6867034,32.9173791 82.7061161,31.7633659 84.0265835,30.832237 C85.3515219,29.9084398 86.9164099,29.2060607 88.7257184,28.726566 C90.5394981,28.2368069 92.544045,27.9977927 94.7378689,27.9977927 C96.9793845,27.9977927 98.9079226,28.1253647 100.541368,28.3922394 C102.173322,28.6561815 103.77845,29.0081042 105.343338,29.4465412 L105.343338,28.3951721 C105.343338,25.3774347 104.452097,23.1002014 102.653221,21.5356116 C100.864778,19.9812863 98.3386015,19.214388 95.0746923,19.214388 C93.012021,19.214388 91.1416073,19.431407 89.4679224,19.8786421 C87.7867857,20.3097475 86.1399274,20.9021507 84.5303284,21.6485202 L82.9863056,17.4650388 C84.9088822,16.5720349 86.8582855,15.8593913 88.8285539,15.3256419 C90.7883898,14.7874934 93.0597128,14.5176859 95.6082446,14.5176859 C100.530935,14.5176859 104.273253,15.7743433 106.814333,18.2832591 C109.236183,20.6587375 110.441892,24.0122678 110.441892,28.3291866 L110.441892,49.2011369 L105.343338,49.2011369 L105.343338,44.1158535 C104.134648,45.6555154 102.510146,47.0133506 100.480262,48.1790947 C98.441437,49.346305 95.8914148,49.9269775 92.8570226,49.9269775 Z M117.434705,15.0460096 L122.607778,15.0460096 L122.607778,20.9905705 C123.761324,19.14151 125.293424,17.5695886 127.17576,16.268941 C129.050645,14.9697597 131.49187,14.3187027 134.493474,14.3187027 C136.591915,14.3187027 138.465309,14.6544956 140.095773,15.3143507 C141.73667,15.966874 143.122714,16.9111999 144.262846,18.1209342 C145.402979,19.3350675 146.267393,20.7720852 146.873974,22.4495833 C147.485025,24.1168171 147.790551,25.9702766 147.790551,27.9982312 L147.790551,49.2015736 L142.611517,49.2015736 L142.611517,29.2959461 C142.611517,26.1315745 141.782871,23.6241253 140.136013,21.7809302 C138.475742,19.9333361 136.095622,19.0168707 133.02248,19.0168707 C131.538072,19.0168707 130.15799,19.2661493 128.883724,19.7705718 C127.612439,20.2764607 126.497642,21.0023013 125.566161,21.9495598 C124.624248,22.886554 123.890986,24.0244374 123.373828,25.3397485 C122.864121,26.6579922 122.607778,28.1096734 122.607778,29.6859938 L122.607778,49.2015736 L117.434705,49.2015736 L117.434705,15.0460096 Z M190.664456,49.2009883 L190.664456,15.0454231 L195.836038,15.0454231 L195.836038,49.2009883 L190.664456,49.2009883 Z M228,15.0460094 L228,20.1356915 L216.401945,20.1356915 L216.401945,49.2015745 L211.230363,49.2015745 L211.230363,20.1356915 L199.630817,20.1356915 L199.630817,15.0460094 L228,15.0460094 Z"></path>
                </g>
            </g>
        </g>
    </g>
</svg>