<?xml version="1.0" encoding="UTF-8"?>
<svg width="30px" height="30px" viewBox="0 0 30 30" version="1.1" xmlns="http://www.w3.org/2000/svg" xmlns:xlink="http://www.w3.org/1999/xlink">
    <!-- Generator: sketchtool 48.2 (47327) - http://www.bohemiancoding.com/sketch -->
    <title>653AD906-99E5-49AE-A02D-4AC7CAD56D40_svg</title>
    <desc>Created with sketchtool.</desc>
    <defs>
        <path d="M15,30 C6.71572875,30 0,23.2842712 0,15 C0,6.71572875 6.71572875,0 15,0 C23.2842712,0 30,6.71572875 30,15 C30,23.2842712 23.2842712,30 15,30 Z M15,29 C22.7319865,29 29,22.7319865 29,15 C29,7.2680135 22.7319865,1 15,1 C7.2680135,1 1,7.2680135 1,15 C1,22.7319865 7.2680135,29 15,29 Z" id="path-1"></path>
        <path d="M13.2857143,9.71428571 C13.2857143,8.76751186 14.0532261,8 15,8 C15.9467739,8 16.7142857,8.76751186 16.7142857,9.71428571 L15.8571429,9.71428571 C15.8571429,9.24089879 15.4733869,8.85714286 15,8.85714286 C14.5266131,8.85714286 14.1428571,9.24089879 14.1428571,9.71428571 L13.2857143,9.71428571 Z M20.1512898,12.9086061 L20.1182478,21.3851091 C20.1182478,22.0423756 19.5809895,22.5751953 18.9182478,22.5751953 L11.0437709,22.5751953 C10.3810292,22.5751953 9.84377093,22.0423756 9.84377093,21.3851091 L9.87675031,12.9246867 C9.35355562,12.63117 9,12.0711594 9,11.4285714 C9,10.4817976 9.76751186,9.71428571 10.7142857,9.71428571 L19.2857143,9.71428571 C20.2324881,9.71428571 21,10.4817976 21,11.4285714 C21,12.059612 20.6590371,12.6110165 20.1512898,12.9086061 Z M19.2857143,12.2857143 C19.7591012,12.2857143 20.1428571,11.9019584 20.1428571,11.4285714 C20.1428571,10.9551845 19.7591012,10.5714286 19.2857143,10.5714286 L10.7142857,10.5714286 C10.2408988,10.5714286 9.85714286,10.9551845 9.85714286,11.4285714 C9.85714286,11.9019584 10.2408988,12.2857143 10.7142857,12.2857143 L19.2857143,12.2857143 Z M10.7391462,13.1428571 L10.7222377,21.1727413 C10.7222377,21.4914177 10.9908669,21.7497559 11.3222377,21.7497559 L18.6829311,21.7497559 C19.0143019,21.7497559 19.2829311,21.4914177 19.2829311,21.1727413 L19.2998396,13.1428571 L10.7391462,13.1428571 Z M12.8571429,14.8571429 C13.0938363,14.8571429 13.2857143,15.0490208 13.2857143,15.2857143 L13.2857143,19.5714286 C13.2857143,19.808122 13.0938363,20 12.8571429,20 C12.6204494,20 12.4285714,19.808122 12.4285714,19.5714286 L12.4285714,15.2857143 C12.4285714,15.0490208 12.6204494,14.8571429 12.8571429,14.8571429 Z M17.1428571,14.8571429 C17.3795506,14.8571429 17.5714286,15.0490208 17.5714286,15.2857143 L17.5714286,19.5714286 C17.5714286,19.808122 17.3795506,20 17.1428571,20 C16.9061637,20 16.7142857,19.808122 16.7142857,19.5714286 L16.7142857,15.2857143 C16.7142857,15.0490208 16.9061637,14.8571429 17.1428571,14.8571429 Z M15,14.8571429 C15.2366935,14.8571429 15.4285714,15.0490208 15.4285714,15.2857143 L15.4285714,19.5714286 C15.4285714,19.808122 15.2366935,20 15,20 C14.7633065,20 14.5714286,19.808122 14.5714286,19.5714286 L14.5714286,15.2857143 C14.5714286,15.0490208 14.7633065,14.8571429 15,14.8571429 Z" id="path-3"></path>
    </defs>
    <g id="EMS-iconset-ACTION" stroke="none" stroke-width="1" fill="none" fill-rule="evenodd" transform="translate(-982.000000, -148.000000)">
        <g id="action_delete" transform="translate(982.000000, 148.000000)">
            <g id="other/action/delete">
                <g id="ðŸ¼icon-colour">
                    <g id="ðŸ”µbackground-colour">
                        <mask id="mask-2" fill="white">
                            <use xlink:href="#path-1"></use>
                        </mask>
                        <use id="Mask" fill="#EDEDED" xlink:href="#path-1"></use>
                        <g id="colour/background_red" mask="url(#mask-2)" fill="#C13333">
                            <rect id="Rectangle-14" x="0" y="0" width="30" height="30"></rect>
                        </g>
                    </g>
                    <mask id="mask-4" fill="white">
                        <use xlink:href="#path-3"></use>
                    </mask>
                    <use id="Mask" fill="#FFFFFF" xlink:href="#path-3"></use>
                    <g id="colour/background_red" mask="url(#mask-4)" fill="#C13333">
                        <rect id="Rectangle-14" x="0" y="0" width="30" height="30"></rect>
                    </g>
                </g>
            </g>
        </g>
    </g>
</svg>