<?xml version="1.0" encoding="UTF-8"?>
<svg width="30px" height="30px" viewBox="0 0 30 30" version="1.1" xmlns="http://www.w3.org/2000/svg" xmlns:xlink="http://www.w3.org/1999/xlink">
    <!-- Generator: sketchtool 48.2 (47327) - http://www.bohemiancoding.com/sketch -->
    <title>24E2741D-83EC-4AAA-AF9E-FCF7DBD7537F_svg</title>
    <desc>Created with sketchtool.</desc>
    <defs>
        <path d="M15,30 C6.71572875,30 0,23.2842712 0,15 C0,6.71572875 6.71572875,0 15,0 C23.2842712,0 30,6.71572875 30,15 C30,23.2842712 23.2842712,30 15,30 Z M15,29 C22.7319865,29 29,22.7319865 29,15 C29,7.2680135 22.7319865,1 15,1 C7.2680135,1 1,7.2680135 1,15 C1,22.7319865 7.2680135,29 15,29 Z" id="path-1"></path>
        <path d="M16.0033465,11.5029282 L13.0008366,11.5029282 L13.0008366,9.50125496 C12.9853237,9.00684166 13.0113454,8.98482325 13.501255,9.00083664 L15.5029282,9.00083664 C15.9933382,9.00433957 16.0053482,8.98432283 16.0033465,9.50125496 L16.0033465,11.5029282 L16.0033465,11.5029282 Z M16.0033465,19.009203 C14.9754873,19.0087026 13.2920801,19.009203 13.0008366,19.009203 L13.0008366,12.5037649 L16.0033465,12.5037649 L16.0033465,19.009203 L16.0033465,19.009203 Z M14.5020916,22.6407387 L13.0008366,20.0100396 L16.0033465,20.0100396 L14.5020916,22.6407387 L14.5020916,22.6407387 Z M16.0033465,8 L13.0008366,8 C12.3953305,8 12,8.38982587 12,9.00083664 L12,20.1166287 L14.0016733,23.6505829 C14.3039259,24.1164724 14.7002572,24.1164724 15.0025099,23.6505829 L17.0041832,20.1166287 L17.0041832,9.00083664 C17.0041832,8.38982587 16.6088527,8.00050042 16.0033465,8 L16.0033465,8 Z" id="path-3"></path>
    </defs>
    <g id="EMS-iconset-ACTION" stroke="none" stroke-width="1" fill="none" fill-rule="evenodd" transform="translate(-618.000000, -148.000000)">
        <g id="action_edit" transform="translate(618.000000, 148.000000)">
            <g id="other/action/edit">
                <g id="ðŸ¼icon-colour">
                    <g id="ðŸ”µbackground-colour">
                        <mask id="mask-2" fill="white">
                            <use xlink:href="#path-1"></use>
                        </mask>
                        <use id="Mask" fill="#EDEDED" xlink:href="#path-1"></use>
                        <g id="colour/background_dark_blue_RETAIL" mask="url(#mask-2)" fill="#0173A7">
                            <rect id="Rectangle-14" x="0" y="0" width="30" height="30"></rect>
                        </g>
                    </g>
                    <mask id="mask-4" fill="white">
                        <use xlink:href="#path-3"></use>
                    </mask>
                    <use id="Mask" fill="#FFFFFF" transform="translate(14.502092, 16.000000) rotate(45.000000) translate(-14.502092, -16.000000) " xlink:href="#path-3"></use>
                    <g id="colour/background_dark_blue_RETAIL" mask="url(#mask-4)" fill="#0173A7">
                        <rect id="Rectangle-14" x="0" y="0" width="30" height="30"></rect>
                    </g>
                </g>
            </g>
        </g>
    </g>
</svg>